/* XPM */
static char *result[] = {
/* columns rows colors chars-per-pixel */
"64 64 5 1 ",
"  c black",
". c #9B5F36",
"X c #DF925E",
"o c #FFFAD3",
"O c None",
/* pixels */
"OOOOOOOOOOOOOOOOO....OOOOOOOOOOOOOOOOOOOOOOOOO...OOOOOOOOOOOOOOO",
"OOOOOOOOOOOOOOOOO....OOOOOOOOOOOOOOOOOOOOOOOOO...OOOOOOOOOOOOOOO",
"OOOOOOOOOOOOOOOOO....OOOOOOOOOOOOOOOOOOOOOOOOO...OOOOOOOOOOOOOOO",
"OOOOOOOOOOOOOOOOO....OOOOOOOOOOOOOOOOOOOOOOOOO...OOOOOOOOOOOOOOO",
"OOOOOOOOOOOOOO...XXXX...OOOOOOOOOOOOOOOOOO....ooo....OOOOOOOOOOO",
"OOOOOOOOOOOOOO...XXXX...OOOOOOOOOOOOOOOOOO....ooo....OOOOOOOOOOO",
"OOOOOOOOOOOOOO...XXXX...OOOOOOOOOOOOOOOOOO....ooo....OOOOOOOOOOO",
"OOOOOOOOOOOOOO...XXXXXXX..................ooooooo....OOOOOOOOOOO",
"OOOOOOOOOOOOOO...XXXXXXX..................ooooooo....OOOOOOOOOOO",
"OOOOOOOOOOOOOO...XXXXXXX..................ooooooo....OOOOOOOOOOO",
"OOOOOOOOOOOOOO...XXXXXXX..................ooooooo....OOOOOOOOOOO",
"OOOOOOOOOOOOOO...XXXXXXXXXXXXXXoooooooooooooooooo....OOOOOOOOOOO",
"OOOOOOOOOOOOOO...XXXXXXXXXXXXXXoooooooooooooooooo....OOOOOOOOOOO",
"OOOOOOOOOOOOOO...XXXXXXXXXXXXXXoooooooooooooooooo....OOOOOOOOOOO",
"OOOOOOOOOO....XXXXXXXXXXXXXXXXXoooooooooooooooooooooo...OOOOOOOO",
"OOOOOOOOOO....XXXXXXXXXXXXXXXXXoooooooooooooooooooooo...OOOOOOOO",
"OOOOOOOOOO....XXXXXXXXXXXXXXXXXoooooooooooooooooooooo...OOOOOOOO",
"OOOOOOOOOO....XXXXXXXXXXXXXXXXXoooooooooooooooooooooo...OOOOOOOO",
"OOOOOOOOOO....XXXXXXX   XXXXoooooooooooooo    ooooooo...OOOOOOOO",
"OOOOOOOOOO....XXXXXXX   XXXXoooooooooooooo    ooooooo...OOOOOOOO",
"OOOOOOOOOO....XXXXXXX   XXXXoooooooooooooo    ooooooo...OOOOOOOO",
"OOOOOOO.......XXXXXXXXXXooooooo    oooooooooooooooooo.......OOOO",
"OOOOOOO.......XXXXXXXXXXooooooo    oooooooooooooooooo.......OOOO",
"OOOOOOO.......XXXXXXXXXXooooooo    oooooooooooooooooo.......OOOO",
"OOOOOOO.......XXXXXXXXXXooooooo    oooooooooooooooooo.......OOOO",
"OOOOOOOOOO....oooooooooooooo...........oooooooooooooo...OOOOOOOO",
"OOOOOOOOOO....oooooooooooooo...........oooooooooooooo...OOOOOOOO",
"OOOOOOOOOO....oooooooooooooo...........oooooooooooooo...OOOOOOOO",
"OOOOOOO...OOOO...oooooooooooooooooooooooooooooooo....OOO....OOOO",
"OOOOOOO...OOOO...oooooooooooooooooooooooooooooooo....OOO....OOOO",
"OOOOOOO...OOOO...oooooooooooooooooooooooooooooooo....OOO....OOOO",
"OOOOOOO...OOOO...oooooooooooooooooooooooooooooooo....OOO....OOOO",
"OOOOOOOOOOOOOOOOO................................OOOOOOOOOOOOOOO",
"OOOOOOOOOOOOOOOOO................................OOOOOOOOOOOOOOO",
"OOOOOOOOOOOOOOOOO................................OOOOOOOOOOOOOOO",
"OOOOOOOOOOOOOOOOO................................OOOOOOOOOOOOOOO",
"OOOOOOOOOOOOOOOOOOOOO...oooooooooooooooooo....OOOOOOOOOOOOOOOOOO",
"OOOOOOOOOOOOOOOOOOOOO...oooooooooooooooooo....OOOOOOOOOOOOOOOOOO",
"OOOOOOOOOOOOOOOOOOOOO...oooooooooooooooooo....OOOOOOOOOOOOOOOOOO",
"OOOOOOOOOOOOOOOOO.......oooooooooooooooooo.......OOOOOOOOOOOOOOO",
"OOOOOOOOOOOOOOOOO.......oooooooooooooooooo.......OOOOOOOOOOOOOOO",
"OOOOOOOOOOOOOOOOO.......oooooooooooooooooo.......OOOOOOOOOOOOOOO",
"OOOOOOOOOOOOOOOOO.......oooooooooooooooooo.......OOOOOOOOOOOOOOO",
"OOOOOOOOOO.......oooo...oooooooooooooooooo....ooo....OOOOOOOOOOO",
"OOOOOOOOOO.......oooo...oooooooooooooooooo....ooo....OOOOOOOOOOO",
"OOOOOOOOOO.......oooo...oooooooooooooooooo....ooo....OOOOOOOOOOO",
"OOOOOOO...oooo...oooo...oooo...oooo....ooo....ooo....OOOOOOOOOOO",
"OOOOOOO...oooo...oooo...oooo...oooo....ooo....ooo....OOOOOOOOOOO",
"OOOOOOO...oooo...oooo...oooo...oooo....ooo....ooo....OOOOOOOOOOO",
"OOOOOOO...oooo...oooo...oooo...oooo....ooo....ooo....OOOOOOOOOOO",
"OOO....XXXXXXX...oooo...oooo...oooo....ooo....ooo....OOOOOOOOOOO",
"OOO....XXXXXXX...oooo...oooo...oooo....ooo....ooo....OOOOOOOOOOO",
"OOO....XXXXXXX...oooo...oooo...oooo....ooo....ooo....OOOOOOOOOOO",
"OOO....XXX....OOO.......oooo...........ooo.......OOOOOOOOOOOOOOO",
"OOO....XXX....OOO.......oooo...........ooo.......OOOOOOOOOOOOOOO",
"OOO....XXX....OOO.......oooo...........ooo.......OOOOOOOOOOOOOOO",
"OOO....XXX....OOO.......oooo...........ooo.......OOOOOOOOOOOOOOO",
"OOOOOOO.......OOOOOOO...oooo...OOOO....ooo....OOOOOOOOOOOOOOOOOO",
"OOOOOOO.......OOOOOOO...oooo...OOOO....ooo....OOOOOOOOOOOOOOOOOO",
"OOOOOOO.......OOOOOOO...oooo...OOOO....ooo....OOOOOOOOOOOOOOOOOO",
"OOOOOOO.......OOOOOOO...oooo...OOOO....ooo....OOOOOOOOOOOOOOOOOO",
"OOOOOOOOOOOOOOOOOOOOOOOO.......OOOO.......OOOOOOOOOOOOOOOOOOOOOO",
"OOOOOOOOOOOOOOOOOOOOOOOO.......OOOO.......OOOOOOOOOOOOOOOOOOOOOO",
"OOOOOOOOOOOOOOOOOOOOOOOO.......OOOO.......OOOOOOOOOOOOOOOOOOOOOO"
};
