/* XPM */
static char *result[] = {
/* columns rows colors chars-per-pixel */
"64 64 5 1 ",
"  c black",
". c #9B5F36",
"X c #DF925E",
"o c #FFFAD3",
"O c None",
/* pixels */
"OOOOOOOOOOOOOOOOOOOOOOOOOOOOOOOOOOOOOOOOOOOOOOOOOOOOOOOOOOOOOOOO",
"OOOOOOOOOOOOOOOOOOOOOOOOOOOOOOOOOOOOOOOOOOOOOOOOOOOOOOOOOOOOOOOO",
"OOOOOOOOOOOOOOOOOOOOOOOOOOOOOOOOOOOOOOOOOOOOOOOOOOOOOOOOOOOOOOOO",
"OOOOOOOOOOOOOOOOOOOOOOOOOOOOOOOOOOOOOOOOOOOOOOOOOOOOOOOOOOOOOOOO",
"OOOOOOOOOOOOOOOOOOOOOOOOOOOOOOOOOOOOOOOOOOOOOOOOOOOOOOOOOOOOOOOO",
"OOOOOO.........OOOOOOOOOOOOOOOOOOOOOOOOOOOOOOOOOOOOOOOOOOOOOOOOO",
"OOOOOO.........OOOOOOOOOOOOOOOOOOOOOOOOOOOOOOOOOOOOOOOOOOOOOOOOO",
"OOOOOO.........OOOOOOOOOOOOOOOOOOOOOOOOOOOOOOOOOOOOOOOOOOOOOOOOO",
"OOO...XXXXXX...OOOOOOOOOOOOOOO...OOOOOOOOOOOOOOOOOOO...OOOOOOOOO",
"OOO...XXXXXX...OOOOOOOOOOOOOOO...OOOOOOOOOOOOOOOOOOO...OOOOOOOOO",
"OOO...XXXXXX...OOOOOOOOOOOOOOO...OOOOOOOOOOOOOOOOOOO...OOOOOOOOO",
"...XXXXXX...OOOOOOOOOOOOOOO...XXX...OOOOOOOOOOOOO...ooo...OOOOOO",
"...XXXXXX...OOOOOOOOOOOOOOO...XXX...OOOOOOOOOOOOO...ooo...OOOOOO",
"...XXXXXX...OOOOOOOOOOOOOOO...XXX...OOOOOOOOOOOOO...ooo...OOOOOO",
"...XXX...OOOOOOOOOOOOOOOOOO...XXXXXX................ooo...OOOOOO",
"...XXX...OOOOOOOOOOOOOOOOOO...XXXXXX................ooo...OOOOOO",
"...XXX...OOOOOOOOOOOOOOOOOO...XXXXXX................ooo...OOOOOO",
"...ooo...OOOOOOOOOOOOOOOOOO...XXXXXXXXXXXXXXXXooooooooo...OOOOOO",
"...ooo...OOOOOOOOOOOOOOOOOO...XXXXXXXXXXXXXXXXooooooooo...OOOOOO",
"...ooo...OOOOOOOOOOOOOOOOOO...XXXXXXXXXXXXXXXXooooooooo...OOOOOO",
"...oooooo...OOOOOOOOOOOO...XXXXXXXXXXXXXXXXXXXoooooooooooo...OOO",
"...oooooo...OOOOOOOOOOOO...XXXXXXXXXXXXXXXXXXXoooooooooooo...OOO",
"...oooooo...OOOOOOOOOOOO...XXXXXXXXXXXXXXXXXXXoooooooooooo...OOO",
"OOO...oooooo...............XXXXXXXXX   XXXoooooooooo   ooo...OOO",
"OOO...oooooo...............XXXXXXXXX   XXXoooooooooo   ooo...OOO",
"OOO...oooooo...............XXXXXXXXX   XXXoooooooooo   ooo...OOO",
"OOOOOO...oooooooooooo......XXXXXXXXXXXXooooooo   ooooooooo......",
"OOOOOO...oooooooooooo......XXXXXXXXXXXXooooooo   ooooooooo......",
"OOOOOO...oooooooooooo......XXXXXXXXXXXXooooooo   ooooooooo......",
"OOOOOOOOO...oooooooooooo...ooooooooooooooo..........oooooo...OOO",
"OOOOOOOOO...oooooooooooo...ooooooooooooooo..........oooooo...OOO",
"OOOOOOOOO...oooooooooooo...ooooooooooooooo..........oooooo...OOO",
"OOOOOOOOO...ooooooooo...ooo...ooooooooooooooooooooooooo...OOO...",
"OOOOOOOOO...ooooooooo...ooo...ooooooooooooooooooooooooo...OOO...",
"OOOOOOOOO...ooooooooo...ooo...ooooooooooooooooooooooooo...OOO...",
"OOOOOOOOO...oooooooooooooooooo.........................OOOOOOOOO",
"OOOOOOOOO...oooooooooooooooooo.........................OOOOOOOOO",
"OOOOOOOOO...oooooooooooooooooo.........................OOOOOOOOO",
"OOOOOOOOO...ooooooooooooooooooooooooooo.......OOOOOOOOOOOOOOOOOO",
"OOOOOOOOO...ooooooooooooooooooooooooooo.......OOOOOOOOOOOOOOOOOO",
"OOOOOOOOO...ooooooooooooooooooooooooooo.......OOOOOOOOOOOOOOOOOO",
"OOOOOOOOO...ooo...............oooooo...ooo....OOOOOOOOOOOOOOOOOO",
"OOOOOOOOO...ooo...............oooooo...ooo....OOOOOOOOOOOOOOOOOO",
"OOOOOOOOO...ooo...............oooooo...ooo....OOOOOOOOOOOOOOOOOO",
"OOOOOOOOO...ooo...ooo...OOOOOO...ooo...ooo....OOOOOOOOOOOOOOOOOO",
"OOOOOOOOO...ooo...ooo...OOOOOO...ooo...ooo....OOOOOOOOOOOOOOOOOO",
"OOOOOOOOO...ooo...ooo...OOOOOO...ooo...ooo....OOOOOOOOOOOOOOOOOO",
"OOOOOOOOO...oooooo......OOOOOO...ooo......OOOOOOOOOOOOOOOOOOOOOO",
"OOOOOOOOO...oooooo......OOOOOO...ooo......OOOOOOOOOOOOOOOOOOOOOO",
"OOOOOOOOO...oooooo......OOOOOO...ooo......OOOOOOOOOOOOOOOOOOOOOO",
"OOOOOOOOO...oooooo......OOOOOO...ooo......OOOOOOOOOOOOOOOOOOOOOO",
"OOOOOOOOOOOO.........OOOOOOOOOOOO......OOOOOOOOOOOOOOOOOOOOOOOOO",
"OOOOOOOOOOOO.........OOOOOOOOOOOO......OOOOOOOOOOOOOOOOOOOOOOOOO",
"OOOOOOOOOOOO.........OOOOOOOOOOOO......OOOOOOOOOOOOOOOOOOOOOOOOO",
"OOOOOOOOOOOOOOOOOOOOOOOOOOOOOOOOOOOOOOOOOOOOOOOOOOOOOOOOOOOOOOOO",
"OOOOOOOOOOOOOOOOOOOOOOOOOOOOOOOOOOOOOOOOOOOOOOOOOOOOOOOOOOOOOOOO",
"OOOOOOOOOOOOOOOOOOOOOOOOOOOOOOOOOOOOOOOOOOOOOOOOOOOOOOOOOOOOOOOO",
"OOOOOOOOOOOOOOOOOOOOOOOOOOOOOOOOOOOOOOOOOOOOOOOOOOOOOOOOOOOOOOOO",
"OOOOOOOOOOOOOOOOOOOOOOOOOOOOOOOOOOOOOOOOOOOOOOOOOOOOOOOOOOOOOOOO",
"OOOOOOOOOOOOOOOOOOOOOOOOOOOOOOOOOOOOOOOOOOOOOOOOOOOOOOOOOOOOOOOO",
"OOOOOOOOOOOOOOOOOOOOOOOOOOOOOOOOOOOOOOOOOOOOOOOOOOOOOOOOOOOOOOOO",
"OOOOOOOOOOOOOOOOOOOOOOOOOOOOOOOOOOOOOOOOOOOOOOOOOOOOOOOOOOOOOOOO",
"OOOOOOOOOOOOOOOOOOOOOOOOOOOOOOOOOOOOOOOOOOOOOOOOOOOOOOOOOOOOOOOO",
"OOOOOOOOOOOOOOOOOOOOOOOOOOOOOOOOOOOOOOOOOOOOOOOOOOOOOOOOOOOOOOOO"
};
