/* XPM */
static char *result[] = {
/* columns rows colors chars-per-pixel */
"64 64 4 1 ",
"  c #9B5F36",
". c #DF925E",
"X c #FFFAD3",
"o c None",
/* pixels */
"oooooooooooooooooo   oooooooooooooooooooooo   oooooooooooooooooo",
"oooooooooooooooooo   oooooooooooooooooooooo   oooooooooooooooooo",
"oooooooooooooooooo   oooooooooooooooooooooo   oooooooooooooooooo",
"oooooooooooooo    XXX   oooooooooooooooo   ...    oooooooooooooo",
"oooooooooooooo    XXX   oooooooooooooooo   ...    oooooooooooooo",
"oooooooooooooo    XXX   oooooooooooooooo   ...    oooooooooooooo",
"oooooooooooooo    XXXXXX                ......    oooooooooooooo",
"oooooooooooooo    XXXXXX                ......    oooooooooooooo",
"oooooooooooooo    XXXXXX                ......    oooooooooooooo",
"oooooooooooooo    XXXXXX                ......    oooooooooooooo",
"oooooooooooooo    XXXXXXXXXXXXXXXX............    oooooooooooooo",
"oooooooooooooo    XXXXXXXXXXXXXXXX............    oooooooooooooo",
"oooooooooooooo    XXXXXXXXXXXXXXXX............    oooooooooooooo",
"ooooooooooo   XXXXXXXXXXXXX       ................   ooooooooooo",
"ooooooooooo   XXXXXXXXXXXXX       ................   ooooooooooo",
"ooooooooooo   XXXXXXXXXXXXX       ................   ooooooooooo",
"ooooooooooo   XXXXXXXXXXXXX   ....   .............   ooooooooooo",
"ooooooooooo   XXXXXXXXXXXXX   ....   .............   ooooooooooo",
"ooooooooooo   XXXXXXXXXXXXX   ....   .............   ooooooooooo",
"oooooooo      XXXXXXXXXXXXX   ....   XXX..........      oooooooo",
"oooooooo      XXXXXXXXXXXXX   ....   XXX..........      oooooooo",
"oooooooo      XXXXXXXXXXXXX   ....   XXX..........      oooooooo",
"ooooooooooo   XXXXXXXXXXXXX   ....   XXX   XXXXXXX   ooooooooooo",
"ooooooooooo   XXXXXXXXXXXXX   ....   XXX   XXXXXXX   ooooooooooo",
"ooooooooooo   XXXXXXXXXXXXX   ....   XXX   XXXXXXX   ooooooooooo",
"ooooooooooo   XXXXXXXXXXXXX   ....   XXX   XXXXXXX   ooooooooooo",
"oooooooo   ooo    XXX   XXX   ....   XXX   XXX    ooo   oooooooo",
"oooooooo   ooo    XXX   XXX   ....   XXX   XXX    ooo   oooooooo",
"oooooooo   ooo    XXX   XXX   ....   XXX   XXX    ooo   oooooooo",
"oooooooooooooooooo   XXXXXX   XXXX   XXXXXX   oooooooooooooooooo",
"oooooooooooooooooo   XXXXXX   XXXX   XXXXXX   oooooooooooooooooo",
"oooooooooooooooooo   XXXXXX   XXXX   XXXXXX   oooooooooooooooooo",
"oooooooooooooooooo   ...XXX   XXXX   XXXXXX   oooooooooooooooooo",
"oooooooooooooooooo   ...XXX   XXXX   XXXXXX   oooooooooooooooooo",
"oooooooooooooooooo   ...XXX   XXXX   XXXXXX   oooooooooooooooooo",
"oooooooooooooooooo   ...XXX   XXXX   XXXXXX   oooooooooooooooooo",
"oooooooooooooooooo   ...XXX   XXXX   XXXXXX   oooooooooooooooooo",
"oooooooooooooooooo   ...XXX   XXXX   XXXXXX   oooooooooooooooooo",
"oooooooooooooooooo   ...XXX   XXXXXXXXXXXXX   oooooooooooooooooo",
"oooooooooooooooooo   ...XXX   XXXXXXXXXXXXX   oooooooooooooooooo",
"oooooooooooooooooo   ...XXX   XXXXXXXXXXXXX   oooooooooooooooooo",
"oooooooooooooooooo   ...XXX   XXXXXXXXXXXXX   oooooooooooooooooo",
"oooooooooooooooooo   XXXXXXXXXXXXXXXXXXXXXX   oooooooooooooooooo",
"oooooooooooooooooo   XXXXXXXXXXXXXXXXXXXXXX   oooooooooooooooooo",
"oooooooooooooooooo   XXXXXXXXXXXXXXXXXXXXXX   oooooooooooooooooo",
"oooooooooooooooooo   XXXXXXXXXXXXXXXXXXXXXX   oooooooooooooooooo",
"oooooooooooooooooo   XXXXXXXXXXXXXXXXXXXXXX   oooooooooooooooooo",
"oooooooooooooooooo   XXXXXXXXXXXXXXXXXXXXXX   oooooooooooooooooo",
"oooooooooooooooooo   XXXXXXXXX    XXXXXXXXX   oooooooooooooooooo",
"oooooooooooooooooo   XXXXXXXXX    XXXXXXXXX   oooooooooooooooooo",
"oooooooooooooooooo   XXXXXXXXX    XXXXXXXXX   oooooooooooooooooo",
"ooooooooooooooooooooo   XXX       XXXXXXXXX   oooooooooooooooooo",
"ooooooooooooooooooooo   XXX       XXXXXXXXX   oooooooooooooooooo",
"ooooooooooooooooooooo   XXX       XXXXXXXXX   oooooooooooooooooo",
"ooooooooooooooooooooo      ooooooo   XXXXXX   oooooooooooooooooo",
"ooooooooooooooooooooo      ooooooo   XXXXXX   oooooooooooooooooo",
"ooooooooooooooooooooo      ooooooo   XXXXXX   oooooooooooooooooo",
"ooooooooooooooooooooo      ooooooo   XXXXXX   oooooooooooooooooo",
"ooooooooooooooooooooooooooooooooooooo      ooooooooooooooooooooo",
"ooooooooooooooooooooooooooooooooooooo      ooooooooooooooooooooo",
"ooooooooooooooooooooooooooooooooooooo      ooooooooooooooooooooo",
"oooooooooooooooooooooooooooooooooooooooooooooooooooooooooooooooo",
"oooooooooooooooooooooooooooooooooooooooooooooooooooooooooooooooo",
"oooooooooooooooooooooooooooooooooooooooooooooooooooooooooooooooo"
};
