/* XPM */
static char *result[] = {
/* columns rows colors chars-per-pixel */
"64 64 5 1 ",
"  c black",
". c #9B5F36",
"X c #DF925E",
"o c #FFFAD3",
"O c None",
/* pixels */
"OOOOOOOOOOOOOOOOOOOOOOOOOOOOOOOOOOOOOOOOOOOOOOOOOOOOOOOOOOOOOOOO",
"OOOOOOOOOOOOOOOOOOOOOOOOOOOOOOOOOOOOOOOOOOOOOOOOOOOOOOOOOOOOOOOO",
"OOOOOOOOOOOOOOOOOOOOOOOOOOOOOOOOOOOOOOOOOOOOOOOOOOOOOOOOOOOOOOOO",
"OOOOOOOOOOOOOOOOOOOOOOOOOOOOOOOOOOOOOOOOOOOOOOOOOOOOOOOOOOOOOOOO",
"OOOOOOOOOOOOOOOOOOOOOOOOOOOOOOOOOOOOOOOOOOOOOOOOOOOOOOOOOOOOOOOO",
"OOOOOOOOOOOOOOOOOOOOOOOOOOOOOOOOOOOOOOOOOOOOOOOOOOOOOOOOOOOOOOOO",
"OOOOOOOOOOOOOOOOOOOOOOOOOOOOOOOOOOOOOOOOOOOOOOOOOOOOOOOOOOOOOOOO",
"OOOOOOOOOOOOOOOOOOOOOOOOOOOOOOOOOOOOOOOOOOOOOOOOOOOOOOOOOOOOOOOO",
"OOOOOOOOOOOOOOOOOOOOOOOOOOOOOOOOOOOOOOOOOOOOOOOOOOOOOOOOOOOOOOOO",
"OOOOOOOOOOOOOOOOOOOOOOOOOOOOOOOOOOOOOOOOOOOOOOOOOOOOOOOOOOOOOOOO",
"OOOOOOOOOOOOOOOOOOOOOOOOOOOOOOOOOOOOOOOOOOOOOOOOOOOOOOOOOOOOOOOO",
"OOOOOOOOOOOOOOOOOOOOOOOOOOOOOOOOOOOOOOOOOOOOOOOOOOOOOOOOOOOOOOOO",
"OOOOOOOOOOOOOOOOOOOO.....................OOOOOOOOOOOOOOOOOOOOOOO",
"OOOOOOOOOOOOOOOOOOOO.....................OOOOOOOOOOOOOOOOOOOOOOO",
"OOOOOOOOOOOOOOOOOOOO.....................OOOOOOOOOOOOOOOOOOOOOOO",
"OOOOOOOOOOOOOOO.....ooooooooooooooooooooo...OOOOOOOOOOOOOOOOOOOO",
"OOOOOOOOOOOOOOO.....ooooooooooooooooooooo...OOOOOOOOOOOOOOOOOOOO",
"OOOOOOOOOOOOOOO.....ooooooooooooooooooooo...OOOOOOOOOOOOOOOOOOOO",
"OOOOOOOOO......ooooooooooooooooo...ooooooXXX.....OOOOOOOOOOOOOOO",
"OOOOOOOOO......ooooooooooooooooo...ooooooXXX.....OOOOOOOOOOOOOOO",
"OOOOOOOOO......ooooooooooooooooo...ooooooXXX.....OOOOOOOOOOOOOOO",
"OOOOOO...XXX...oooooooooooooo...ooo...XXXXXXXXX.....OOOOOOOOOOOO",
"OOOOOO...XXX...oooooooooooooo...ooo...XXXXXXXXX.....OOOOOOOOOOOO",
"OOOOOO...XXX...oooooooooooooo...ooo...XXXXXXXXX.....OOOOOOOOOOOO",
"OOOOOO...XXXXXX..............oooooo...XXXXXXXXXoo.........OOOOOO",
"OOOOOO...XXXXXX..............oooooo...XXXXXXXXXoo.........OOOOOO",
"OOOOOO...XXXXXX..............oooooo...XXXXXXXXXoo.........OOOOOO",
"OOOOOO...XXXXXXXXXXXooooooooooooooo...ooo...ooooo...oooooo...OOO",
"OOOOOO...XXXXXXXXXXXooooooooooooooo...ooo...ooooo...oooooo...OOO",
"OOO...XXXXXXXXXXXXXXoooooooooooooooooo...oooooooo......oooooo...",
"OOO...XXXXXXXXXXXXXXoooooooooooooooooo...oooooooo......oooooo...",
"OOO...XXXXXXXXXXXXXXoooooooooooooooooo...oooooooo......oooooo...",
"OOO...XXXXXXXXXXXXXXoooooooooooooooooo...oooooooo...OOO...ooo...",
"OOO...XXXXXXXXXXXXXXoooooooooooooooooo...oooooooo...OOO...ooo...",
"OOO...XXXXXXXXXXXXXXoooooooooooooooooo...oooooooo...OOO...ooo...",
"......XXXXXX     ooooooooo      oooooo...oooooo..OOOOOO...XXX...",
"......XXXXXX     ooooooooo      oooooo...oooooo..OOOOOO...XXX...",
"......XXXXXX     ooooooooo      oooooo...oooooo..OOOOOO...XXX...",
"OOO...XXXXXXXXXooooo   ooooooooooooooo...oooooo..OOOOOO...XXX...",
"OOO...XXXXXXXXXooooo   ooooooooooooooo...oooooo..OOOOOO...XXX...",
"OOO...XXXXXXXXXooooo   ooooooooooooooo...oooooo..OOOOOO...XXX...",
"...OOO...oooooooooooooooooooooooooo...oooooo...OOOOO...XXX...OOO",
"...OOO...oooooooooooooooooooooooooo...oooooo...OOOOO...XXX...OOO",
"...OOO...oooooooooooooooooooooooooo...oooooo...OOOOO...XXX...OOO",
"OOOOOOOOO..........................OOO......OOOOOOOO......OOOOOO",
"OOOOOOOOO..........................OOO......OOOOOOOO......OOOOOO",
"OOOOOOOOO..........................OOO......OOOOOOOO......OOOOOO",
"OOOOOOOOOOOOOOOOOOOOOOOOOOOOOOOOOOOOOOOOOOOOOOOOOOOOOOOOOOOOOOOO",
"OOOOOOOOOOOOOOOOOOOOOOOOOOOOOOOOOOOOOOOOOOOOOOOOOOOOOOOOOOOOOOOO",
"OOOOOOOOOOOOOOOOOOOOOOOOOOOOOOOOOOOOOOOOOOOOOOOOOOOOOOOOOOOOOOOO",
"OOOOOOOOOOOOOOOOOOOOOOOOOOOOOOOOOOOOOOOOOOOOOOOOOOOOOOOOOOOOOOOO",
"OOOOOOOOOOOOOOOOOOOOOOOOOOOOOOOOOOOOOOOOOOOOOOOOOOOOOOOOOOOOOOOO",
"OOOOOOOOOOOOOOOOOOOOOOOOOOOOOOOOOOOOOOOOOOOOOOOOOOOOOOOOOOOOOOOO",
"OOOOOOOOOOOOOOOOOOOOOOOOOOOOOOOOOOOOOOOOOOOOOOOOOOOOOOOOOOOOOOOO",
"OOOOOOOOOOOOOOOOOOOOOOOOOOOOOOOOOOOOOOOOOOOOOOOOOOOOOOOOOOOOOOOO",
"OOOOOOOOOOOOOOOOOOOOOOOOOOOOOOOOOOOOOOOOOOOOOOOOOOOOOOOOOOOOOOOO",
"OOOOOOOOOOOOOOOOOOOOOOOOOOOOOOOOOOOOOOOOOOOOOOOOOOOOOOOOOOOOOOOO",
"OOOOOOOOOOOOOOOOOOOOOOOOOOOOOOOOOOOOOOOOOOOOOOOOOOOOOOOOOOOOOOOO",
"OOOOOOOOOOOOOOOOOOOOOOOOOOOOOOOOOOOOOOOOOOOOOOOOOOOOOOOOOOOOOOOO",
"OOOOOOOOOOOOOOOOOOOOOOOOOOOOOOOOOOOOOOOOOOOOOOOOOOOOOOOOOOOOOOOO",
"OOOOOOOOOOOOOOOOOOOOOOOOOOOOOOOOOOOOOOOOOOOOOOOOOOOOOOOOOOOOOOOO",
"OOOOOOOOOOOOOOOOOOOOOOOOOOOOOOOOOOOOOOOOOOOOOOOOOOOOOOOOOOOOOOOO",
"OOOOOOOOOOOOOOOOOOOOOOOOOOOOOOOOOOOOOOOOOOOOOOOOOOOOOOOOOOOOOOOO",
"OOOOOOOOOOOOOOOOOOOOOOOOOOOOOOOOOOOOOOOOOOOOOOOOOOOOOOOOOOOOOOOO"
};
