/* XPM */
static char *result[] = {
/* columns rows colors chars-per-pixel */
"64 64 5 1 ",
"  c black",
". c #9B5F36",
"X c #DF925E",
"o c #FFFAD3",
"O c None",
/* pixels */
"OOOOOOOOOOOOOOOOOOOOOOOOOOOOOOOOOOOOOOOOOOOOOOOOOOOOOOOOOOOOOOOO",
"OOOOOOOOOOOOOOOOOOOOOOOOOOOOOOOOOOOOOOOOOOOOOOOOOOOOOOOOOOOOOOOO",
"OOOOOOOOOOOOOOOOOOOOOOOOOOOOOOOOOOOOOOOOOOOOOOOOOOOOOOOOOOOOOOOO",
"OOOOOOOOOOOOOOOOOOOOOOOOOOOOOOOOOOOOOOOOOOOOOOOOOOOOOOOOOOOOOOOO",
"OOOOOOOOOOOOOOOOOOOOOOOOOOOOOOOOOOOOOOOOOOOOOOOOOOOOOOOOOOOOOOOO",
"OOOOOOOOOOOOOOOOOOOOOOOOOOOOOOOOOOOOOOOOOOOOOOOOOOOOOOOOOOOOOOOO",
"OOOOOOOOOOOOOOOOOOOOOOOOOOOOOOOOOOOOOOOOOOOOOOOOOOOO.........OOO",
"OOOOOOOOOOOOOOOOOOOOOOOOOOOOOOOOOOOOOOOOOOOOOOOOOOOO.........OOO",
"OOOOOOOOOOOOOOOOOOOOOOOOOOOOOOOOOOOOOOOOOOOOOOOOOOOO.........OOO",
"OOOOOOOOO...OOOOOOOOOOOOOOOOOO...OOOOOOOOOOOOOOOOOOO...XXXXXX...",
"OOOOOOOOO...OOOOOOOOOOOOOOOOOO...OOOOOOOOOOOOOOOOOOO...XXXXXX...",
"OOOOOOOOO...OOOOOOOOOOOOOOOOOO...OOOOOOOOOOOOOOOOOOO...XXXXXX...",
"OOOOOO...XXX...OOOOOOOOOOOO...ooo....OOOOOOOOOOOOOOOOOO...XXX...",
"OOOOOO...XXX...OOOOOOOOOOOO...ooo....OOOOOOOOOOOOOOOOOO...XXX...",
"OOOOOO...XXX...OOOOOOOOOOOO...ooo....OOOOOOOOOOOOOOOOOO...XXX...",
"OOOOOO...XXX...............oooooo....OOOOOOOOOOOOOOOOOO...XXX...",
"OOOOOO...XXX...............oooooo....OOOOOOOOOOOOOOOOOO...XXX...",
"OOOOOO...XXX...............oooooo....OOOOOOOOOOOOOOOOOO...XXX...",
"OOOOOO...XXXXXXXXXooooooooooooooo....OOOOOOOOOOOOOOOOOO...ooo...",
"OOOOOO...XXXXXXXXXooooooooooooooo....OOOOOOOOOOOOOOOOOO...ooo...",
"OOOOOO...XXXXXXXXXooooooooooooooo....OOOOOOOOOOOOOOOOOO...ooo...",
"OOO...XXXXXXXXXXXXooooooooooooooooooo...OOOOOOOOOOOO...oooooo...",
"OOO...XXXXXXXXXXXXooooooooooooooooooo...OOOOOOOOOOOO...oooooo...",
"OOO...XXXXXXXXXXXXooooooooooooooooooo...OOOOOOOOOOOO...oooooo...",
"OOO...XXX   XXXooooooooo   oooooooooo...............oooooo...OOO",
"OOO...XXX   XXXooooooooo   oooooooooo...............oooooo...OOO",
"OOO...XXX   XXXooooooooo   oooooooooo...............oooooo...OOO",
"......XXXXXXooo   ooooooooooooooooooo......oooooooooooo...OOOOOO",
"......XXXXXXooo   ooooooooooooooooooo......oooooooooooo...OOOOOO",
"......XXXXXXooo   ooooooooooooooooooo......oooooooooooo...OOOOOO",
"OOO...oooooo.........oooooooooooooooo...XXXoooXXXooo...OOOOOOOOO",
"OOO...oooooo.........oooooooooooooooo...XXXoooXXXooo...OOOOOOOOO",
"OOO...oooooo.........oooooooooooooooo...XXXoooXXXooo...OOOOOOOOO",
"...OOO...oooooooooooooooooooooooo....ooo...XXXXXXooo...OOOOOOOOO",
"...OOO...oooooooooooooooooooooooo....ooo...XXXXXXooo...OOOOOOOOO",
"...OOO...oooooooooooooooooooooooo....ooo...XXXXXXooo...OOOOOOOOO",
"OOOOOOOOO........................ooooooooooXXXoooooo...OOOOOOOOO",
"OOOOOOOOO........................ooooooooooXXXoooooo...OOOOOOOOO",
"OOOOOOOOO........................ooooooooooXXXoooooo...OOOOOOOOO",
"OOOOOOOOOOOOOOOOOO......oooooooooooooooooooooooooooo...OOOOOOOOO",
"OOOOOOOOOOOOOOOOOO......oooooooooooooooooooooooooooo...OOOOOOOOO",
"OOOOOOOOOOOOOOOOOO......oooooooooooooooooooooooooooo...OOOOOOOOO",
"OOOOOOOOOOOOOOOOOO......oooooooooooooooooooooooooooo...OOOOOOOOO",
"OOOOOOOOOOOOOOO...oooooo......ooo.............ooo......OOOOOOOOO",
"OOOOOOOOOOOOOOO...oooooo......ooo.............ooo......OOOOOOOOO",
"OOOOOOOOOOOOOOO...oooooo......ooo.............ooo......OOOOOOOOO",
"OOOOOOOOOOOOOOO.........OOO...ooo.......ooooooooo...OOOOOOOOOOOO",
"OOOOOOOOOOOOOOO.........OOO...ooo.......ooooooooo...OOOOOOOOOOOO",
"OOOOOOOOOOOOOOO.........OOO...ooo.......ooooooooo...OOOOOOOOOOOO",
"OOOOOOOOOOOOOOOOOOOOOOOOOOOOOO.......OOO.........OOOOOOOOOOOOOOO",
"OOOOOOOOOOOOOOOOOOOOOOOOOOOOOO.......OOO.........OOOOOOOOOOOOOOO",
"OOOOOOOOOOOOOOOOOOOOOOOOOOOOOO.......OOO.........OOOOOOOOOOOOOOO",
"OOOOOOOOOOOOOOOOOOOOOOOOOOOOOOOOOOOOOOOOOOOOOOOOOOOOOOOOOOOOOOOO",
"OOOOOOOOOOOOOOOOOOOOOOOOOOOOOOOOOOOOOOOOOOOOOOOOOOOOOOOOOOOOOOOO",
"OOOOOOOOOOOOOOOOOOOOOOOOOOOOOOOOOOOOOOOOOOOOOOOOOOOOOOOOOOOOOOOO",
"OOOOOOOOOOOOOOOOOOOOOOOOOOOOOOOOOOOOOOOOOOOOOOOOOOOOOOOOOOOOOOOO",
"OOOOOOOOOOOOOOOOOOOOOOOOOOOOOOOOOOOOOOOOOOOOOOOOOOOOOOOOOOOOOOOO",
"OOOOOOOOOOOOOOOOOOOOOOOOOOOOOOOOOOOOOOOOOOOOOOOOOOOOOOOOOOOOOOOO",
"OOOOOOOOOOOOOOOOOOOOOOOOOOOOOOOOOOOOOOOOOOOOOOOOOOOOOOOOOOOOOOOO",
"OOOOOOOOOOOOOOOOOOOOOOOOOOOOOOOOOOOOOOOOOOOOOOOOOOOOOOOOOOOOOOOO",
"OOOOOOOOOOOOOOOOOOOOOOOOOOOOOOOOOOOOOOOOOOOOOOOOOOOOOOOOOOOOOOOO",
"OOOOOOOOOOOOOOOOOOOOOOOOOOOOOOOOOOOOOOOOOOOOOOOOOOOOOOOOOOOOOOOO",
"OOOOOOOOOOOOOOOOOOOOOOOOOOOOOOOOOOOOOOOOOOOOOOOOOOOOOOOOOOOOOOOO",
"OOOOOOOOOOOOOOOOOOOOOOOOOOOOOOOOOOOOOOOOOOOOOOOOOOOOOOOOOOOOOOOO"
};
