/* XPM */
static char *result[] = {
/* columns rows colors chars-per-pixel */
"64 64 5 1 ",
"  c black",
". c #9B5F36",
"X c #DF925E",
"o c #FFFAD3",
"O c None",
/* pixels */
"OOOOOOOOOOOOOOOOOOOOOOOOOOOOOOOOOOOOOOOOOOOOOOOOOOOOOOOOOOOOOOOO",
"OOOOOOOOOOOOOOOOOOOOOOOOOOOOOOOOOOOOOOOOOOOOOOOOOOOOOOOOOOOOOOOO",
"OOOOOOOOOOOOOOOOOOOOOOOOOOOOOOOOOOOOOOOOOOOOOOOOOOOOOOOOOOOOOOOO",
"OOOOOOOOOOOOOOOOOOOOOOOOOOOOOOOOOOOOOOOOOOOOOOOOOOOOOOOOOOOOOOOO",
"OOOOOOOOOOOOOOOOOOOOOOOOOOOOOOOOOOOOOOOOOOOOOOOOOOOOOOOOOOOOOOOO",
"OOOOOOOOOOOOOOOOOOOOOOOOOOOOOOOOOOOOOOOOOOOOOOOOOOOOOOOOOOOOOOOO",
"OOOOOOOOOOOOOOOOOOOOOOOOOOOOOOOOOOOOOOOOOOOOOOOOOOOO.........OOO",
"OOOOOOOOOOOOOOOOOOOOOOOOOOOOOOOOOOOOOOOOOOOOOOOOOOOO.........OOO",
"OOOOOOOOOOOOOOOOOOOOOOOOOOOOOOOOOOOOOOOOOOOOOOOOOOOO.........OOO",
"OOOOOOOOO...OOOOOOOOOOOOOOOOOO....OOOOOOOOOOOOOOOOOO...XXXXXX...",
"OOOOOOOOO...OOOOOOOOOOOOOOOOOO....OOOOOOOOOOOOOOOOOO...XXXXXX...",
"OOOOOOOOO...OOOOOOOOOOOOOOOOOO....OOOOOOOOOOOOOOOOOO...XXXXXX...",
"OOOOOO...XXX...OOOOOOOOOOOO...oooo...OOOOOOOOOOOOOOOOOO...XXX...",
"OOOOOO...XXX...OOOOOOOOOOOO...oooo...OOOOOOOOOOOOOOOOOO...XXX...",
"OOOOOO...XXX...OOOOOOOOOOOO...oooo...OOOOOOOOOOOOOOOOOO...XXX...",
"OOOOOO...XXX...............ooooooo...OOOOOOOOOOOOOOOOOO...XXX...",
"OOOOOO...XXX...............ooooooo...OOOOOOOOOOOOOOOOOO...XXX...",
"OOOOOO...XXX...............ooooooo...OOOOOOOOOOOOOOOOOO...XXX...",
"OOOOOO...XXXXXXXXXoooooooooooooooo...OOOOOOOOOOOOOOOOOO...ooo...",
"OOOOOO...XXXXXXXXXoooooooooooooooo...OOOOOOOOOOOOOOOOOO...ooo...",
"OOOOOO...XXXXXXXXXoooooooooooooooo...OOOOOOOOOOOOOOOOOO...ooo...",
"OOO...XXXXXXXXXXXXooooooooooooooooooo...OOOOOOOOOOOO...oooooo...",
"OOO...XXXXXXXXXXXXooooooooooooooooooo...OOOOOOOOOOOO...oooooo...",
"OOO...XXXXXXXXXXXXooooooooooooooooooo...OOOOOOOOOOOO...oooooo...",
"OOO...XXX   XXXooooooooo   oooooooooo...............oooooo...OOO",
"OOO...XXX   XXXooooooooo   oooooooooo...............oooooo...OOO",
"OOO...XXX   XXXooooooooo   oooooooooo...............oooooo...OOO",
"......XXXXXXooo   ooooooooooooooooooo......oooooooooooo...OOOOOO",
"......XXXXXXooo   ooooooooooooooooooo......oooooooooooo...OOOOOO",
"......XXXXXXooo   ooooooooooooooooooo......oooooooooooo...OOOOOO",
"OOO...oooooo.........oooooooooooooooo...XXXoooXXXooo...OOOOOOOOO",
"OOO...oooooo.........oooooooooooooooo...XXXoooXXXooo...OOOOOOOOO",
"OOO...oooooo.........oooooooooooooooo...XXXoooXXXooo...OOOOOOOOO",
"...OOO...ooooooooooooooooooooooooo...ooo...XXXXXXooo...OOOOOOOOO",
"...OOO...ooooooooooooooooooooooooo...ooo...XXXXXXooo...OOOOOOOOO",
"...OOO...ooooooooooooooooooooooooo...ooo...XXXXXXooo...OOOOOOOOO",
"OOOOOOOOO.........................oooooooooXXXoooooo...OOOOOOOOO",
"OOOOOOOOO.........................oooooooooXXXoooooo...OOOOOOOOO",
"OOOOOOOOO.........................oooooooooXXXoooooo...OOOOOOOOO",
"OOOOOOOOO.........................oooooooooXXXoooooo...OOOOOOOOO",
"OOOOOOOOOOOOOOOOOO......oooooooooooooooooooooooooooo...OOOOOOOOO",
"OOOOOOOOOOOOOOOOOO......oooooooooooooooooooooooooooo...OOOOOOOOO",
"OOOOOOOOOOOOOOOOOO......oooooooooooooooooooooooooooo...OOOOOOOOO",
"OOOOOOOOOOOOOOOOOOOOO...oooooo...................oooooo...OOOOOO",
"OOOOOOOOOOOOOOOOOOOOO...oooooo...................oooooo...OOOOOO",
"OOOOOOOOOOOOOOOOOOOOO...oooooo...................oooooo...OOOOOO",
"OOOOOOOOOOOOOOOOOO...oooooo.......OOO......OOOOOO...ooo...OOOOOO",
"OOOOOOOOOOOOOOOOOO...oooooo.......OOO......OOOOOO...ooo...OOOOOO",
"OOOOOOOOOOOOOOOOOO...oooooo.......OOO......OOOOOO...ooo...OOOOOO",
"OOOOOOOOOOOOOOOOOO.........OOOOOOOOOOOOOOOOOOOOOO......OOOOOOOOO",
"OOOOOOOOOOOOOOOOOO.........OOOOOOOOOOOOOOOOOOOOOO......OOOOOOOOO",
"OOOOOOOOOOOOOOOOOO.........OOOOOOOOOOOOOOOOOOOOOO......OOOOOOOOO",
"OOOOOOOOOOOOOOOOOOOOOOOOOOOOOOOOOOOOOOOOOOOOOOOOOOOOOOOOOOOOOOOO",
"OOOOOOOOOOOOOOOOOOOOOOOOOOOOOOOOOOOOOOOOOOOOOOOOOOOOOOOOOOOOOOOO",
"OOOOOOOOOOOOOOOOOOOOOOOOOOOOOOOOOOOOOOOOOOOOOOOOOOOOOOOOOOOOOOOO",
"OOOOOOOOOOOOOOOOOOOOOOOOOOOOOOOOOOOOOOOOOOOOOOOOOOOOOOOOOOOOOOOO",
"OOOOOOOOOOOOOOOOOOOOOOOOOOOOOOOOOOOOOOOOOOOOOOOOOOOOOOOOOOOOOOOO",
"OOOOOOOOOOOOOOOOOOOOOOOOOOOOOOOOOOOOOOOOOOOOOOOOOOOOOOOOOOOOOOOO",
"OOOOOOOOOOOOOOOOOOOOOOOOOOOOOOOOOOOOOOOOOOOOOOOOOOOOOOOOOOOOOOOO",
"OOOOOOOOOOOOOOOOOOOOOOOOOOOOOOOOOOOOOOOOOOOOOOOOOOOOOOOOOOOOOOOO",
"OOOOOOOOOOOOOOOOOOOOOOOOOOOOOOOOOOOOOOOOOOOOOOOOOOOOOOOOOOOOOOOO",
"OOOOOOOOOOOOOOOOOOOOOOOOOOOOOOOOOOOOOOOOOOOOOOOOOOOOOOOOOOOOOOOO",
"OOOOOOOOOOOOOOOOOOOOOOOOOOOOOOOOOOOOOOOOOOOOOOOOOOOOOOOOOOOOOOOO",
"OOOOOOOOOOOOOOOOOOOOOOOOOOOOOOOOOOOOOOOOOOOOOOOOOOOOOOOOOOOOOOOO"
};
