/* XPM */
static char *result[] = {
/* columns rows colors chars-per-pixel */
"64 64 5 1 ",
"  c black",
". c #9B5F36",
"X c #DF925E",
"o c #FFFAD3",
"O c None",
/* pixels */
"OOOOOOOOOOOOOOOOOOOOOOOOOOOOOOOOOOOOOOOOOOOOOOOOOOOOOOOOOOOOOOOO",
"OOOOOOOOOOOOOOOOOOOOOOOOOOOOOOOOOOOOOOOOOOOOOOOOOOOOOOOOOOOOOOOO",
"OOOOOOOOOOOOOOOOOOOOOOOOOOOOOOOOOOOOOOOOOOOOOOOOOOOOOOOOOOOOOOOO",
"OOOOOOOOOOOOOOOOOOOOOOOOOOOOOOOOOOOOOOOOOOOOOOOOOOOOOOOOOOOOOOOO",
"OOOOOOOOOOOOOOOOOOOOOOOOOOOOOOOOOOOOOOOOOOOOOOOOOOOOOOOOOOOOOOOO",
"OOOOOOOOOOOOOOOOOOOOOOOOOOOOOOOOOOOOOOOOOOOOOOOOOOOOOOOOOOOOOOOO",
"OOO.........OOOOOOOOOOOOOOOOOOOOOOOOOOOOOOOOOOOOOOOOOOOOOOOOOOOO",
"OOO.........OOOOOOOOOOOOOOOOOOOOOOOOOOOOOOOOOOOOOOOOOOOOOOOOOOOO",
"OOO.........OOOOOOOOOOOOOOOOOOOOOOOOOOOOOOOOOOOOOOOOOOOOOOOOOOOO",
"...XXXXXX...OOOOOOOOOOOOOOOOOO....OOOOOOOOOOOOOOOOOO...OOOOOOOOO",
"...XXXXXX...OOOOOOOOOOOOOOOOOO....OOOOOOOOOOOOOOOOOO...OOOOOOOOO",
"...XXXXXX...OOOOOOOOOOOOOOOOOO....OOOOOOOOOOOOOOOOOO...OOOOOOOOO",
"...XXX...OOOOOOOOOOOOOOOOOO...XXXX...OOOOOOOOOOOO...ooo...OOOOOO",
"...XXX...OOOOOOOOOOOOOOOOOO...XXXX...OOOOOOOOOOOO...ooo...OOOOOO",
"...XXX...OOOOOOOOOOOOOOOOOO...XXXX...OOOOOOOOOOOO...ooo...OOOOOO",
"...XXX...OOOOOOOOOOOOOOOOOO...XXXXXXX...............ooo...OOOOOO",
"...XXX...OOOOOOOOOOOOOOOOOO...XXXXXXX...............ooo...OOOOOO",
"...XXX...OOOOOOOOOOOOOOOOOO...XXXXXXX...............ooo...OOOOOO",
"...ooo...OOOOOOOOOOOOOOOOOO...XXXXXXXXXXXXXXXXooooooooo...OOOOOO",
"...ooo...OOOOOOOOOOOOOOOOOO...XXXXXXXXXXXXXXXXooooooooo...OOOOOO",
"...ooo...OOOOOOOOOOOOOOOOOO...XXXXXXXXXXXXXXXXooooooooo...OOOOOO",
"...oooooo...OOOOOOOOOOOO...XXXXXXXXXXXXXXXXXXXoooooooooooo...OOO",
"...oooooo...OOOOOOOOOOOO...XXXXXXXXXXXXXXXXXXXoooooooooooo...OOO",
"...oooooo...OOOOOOOOOOOO...XXXXXXXXXXXXXXXXXXXoooooooooooo...OOO",
"OOO...oooooo...............XXXXXXXXXX   XXXooooooooo   ooo...OOO",
"OOO...oooooo...............XXXXXXXXXX   XXXooooooooo   ooo...OOO",
"OOO...oooooo...............XXXXXXXXXX   XXXooooooooo   ooo...OOO",
"OOOOOO...oooooooooooo......XXXXXXXXXXXXXoooooo   ooooooooo......",
"OOOOOO...oooooooooooo......XXXXXXXXXXXXXoooooo   ooooooooo......",
"OOOOOO...oooooooooooo......XXXXXXXXXXXXXoooooo   ooooooooo......",
"OOOOOOOOO...oooooooooooo...oooooooooooooooo.........oooooo...OOO",
"OOOOOOOOO...oooooooooooo...oooooooooooooooo.........oooooo...OOO",
"OOOOOOOOO...oooooooooooo...oooooooooooooooo.........oooooo...OOO",
"OOOOOOOOO...ooooooooo...ooo...ooooooooooooooooooooooooo...OOO...",
"OOOOOOOOO...ooooooooo...ooo...ooooooooooooooooooooooooo...OOO...",
"OOOOOOOOO...ooooooooo...ooo...ooooooooooooooooooooooooo...OOO...",
"OOOOOOOOO...oooooooooooooooooo.........................OOOOOOOOO",
"OOOOOOOOO...oooooooooooooooooo.........................OOOOOOOOO",
"OOOOOOOOO...oooooooooooooooooo.........................OOOOOOOOO",
"OOOOOOOOO...oooooooooooooooooooooooooooo......OOOOOOOOOOOOOOOOOO",
"OOOOOOOOO...oooooooooooooooooooooooooooo......OOOOOOOOOOOOOOOOOO",
"OOOOOOOOO...oooooooooooooooooooooooooooo......OOOOOOOOOOOOOOOOOO",
"OOOOOOOOO...oooooooooooooooooooooooooooo......OOOOOOOOOOOOOOOOOO",
"OOOOOOOOO......ooo............oooo......oooooo...OOOOOOOOOOOOOOO",
"OOOOOOOOO......ooo............oooo......oooooo...OOOOOOOOOOOOOOO",
"OOOOOOOOO......ooo............oooo......oooooo...OOOOOOOOOOOOOOO",
"OOOOOOOOOOOO...ooooooooo......oooo...OOO.........OOOOOOOOOOOOOOO",
"OOOOOOOOOOOO...ooooooooo......oooo...OOO.........OOOOOOOOOOOOOOO",
"OOOOOOOOOOOO...ooooooooo......oooo...OOO.........OOOOOOOOOOOOOOO",
"OOOOOOOOOOOOOOO.........OOO.......OOOOOOOOOOOOOOOOOOOOOOOOOOOOOO",
"OOOOOOOOOOOOOOO.........OOO.......OOOOOOOOOOOOOOOOOOOOOOOOOOOOOO",
"OOOOOOOOOOOOOOO.........OOO.......OOOOOOOOOOOOOOOOOOOOOOOOOOOOOO",
"OOOOOOOOOOOOOOOOOOOOOOOOOOOOOOOOOOOOOOOOOOOOOOOOOOOOOOOOOOOOOOOO",
"OOOOOOOOOOOOOOOOOOOOOOOOOOOOOOOOOOOOOOOOOOOOOOOOOOOOOOOOOOOOOOOO",
"OOOOOOOOOOOOOOOOOOOOOOOOOOOOOOOOOOOOOOOOOOOOOOOOOOOOOOOOOOOOOOOO",
"OOOOOOOOOOOOOOOOOOOOOOOOOOOOOOOOOOOOOOOOOOOOOOOOOOOOOOOOOOOOOOOO",
"OOOOOOOOOOOOOOOOOOOOOOOOOOOOOOOOOOOOOOOOOOOOOOOOOOOOOOOOOOOOOOOO",
"OOOOOOOOOOOOOOOOOOOOOOOOOOOOOOOOOOOOOOOOOOOOOOOOOOOOOOOOOOOOOOOO",
"OOOOOOOOOOOOOOOOOOOOOOOOOOOOOOOOOOOOOOOOOOOOOOOOOOOOOOOOOOOOOOOO",
"OOOOOOOOOOOOOOOOOOOOOOOOOOOOOOOOOOOOOOOOOOOOOOOOOOOOOOOOOOOOOOOO",
"OOOOOOOOOOOOOOOOOOOOOOOOOOOOOOOOOOOOOOOOOOOOOOOOOOOOOOOOOOOOOOOO",
"OOOOOOOOOOOOOOOOOOOOOOOOOOOOOOOOOOOOOOOOOOOOOOOOOOOOOOOOOOOOOOOO",
"OOOOOOOOOOOOOOOOOOOOOOOOOOOOOOOOOOOOOOOOOOOOOOOOOOOOOOOOOOOOOOOO",
"OOOOOOOOOOOOOOOOOOOOOOOOOOOOOOOOOOOOOOOOOOOOOOOOOOOOOOOOOOOOOOOO"
};
