/* XPM */
static char *result[] = {
/* columns rows colors chars-per-pixel */
"64 64 5 1 ",
"  c black",
". c #9B5F36",
"X c #DF925E",
"o c #FFFAD3",
"O c None",
/* pixels */
"OOOOOOOOOOOOOOOOOOOOOOOOOOO.......OOOOOOOOOOOOOOOOOOOOOOOOOOOOOO",
"OOOOOOOOOOOOOOOOOOOOOOOOOOO.......OOOOOOOOOOOOOOOOOOOOOOOOOOOOOO",
"OOOOOOOOOOOOOOOOOOOOOOOOOOO.......OOOOOOOOOOOOOOOOOOOOOOOOOOOOOO",
"OOOOOOOOOOOOOOOOOOOOOOOOOOO....XXX...OOOOOOOOOOOOOOOOOOOOOOOOOOO",
"OOOOOOOOOOOOOOOOOOOOOOOOOOO....XXX...OOOOOOOOOOOOOOOOOOOOOOOOOOO",
"OOOOOOOOOOOOOOOOOOOOOOOOOOO....XXX...OOOOOOOOOOOOOOOOOOOOOOOOOOO",
"OOOOOOOOOOOOOOOOOOOOOOOOOOO....XXX...OOOOOOOOOOOOOOOOOOOOOOOOOOO",
"OOOOOOOOOOOOOOOOOOOOOOOOOOO....XXX...OOOOOOOOOOOOOOOOOOOOOOOOOOO",
"OOOOOOOOOOOOOOOOOOOOOOOOOOO....XXX...OOOOOOOOOOOOOOOOOOOOOOOOOOO",
"OOOOOOOOOOOOOOOOOOOOOOOOOOO....XXX...OOOOOOOOOOOOOOOOOOOOOOOOOOO",
"OOOOOOOOOOOOOOOOOOOOOOOOOOO....XXX...OOOOOOOOOOOOOOOOOOOOOOOOOOO",
"OOOOOOOOOOOOOOOOOOOOOOOOOOO....XXX...OOOOOOOOOOOOOOOOOOOOOOOOOOO",
"OOOOOOOOOOOOOOOOOOOOOOOOOOO....XXX...OOOOOOOOOOOOOOOOOOOOOOOOOOO",
"OOOOOOOOOOOOOOOOOOOOOOOOOOO....ooo...OOOOOOOOOOOOOOOOOOOOOOOOOOO",
"OOOOOOOOOOOOOOOOOOOOOOOOOOO....ooo...OOOOOOOOOOOOOOOOOOOOOOOOOOO",
"OOOOOOOOOOOOOOOOOOOOOOOOOOO....ooo...OOOOOOOOOOOOOOOOOOOOOOOOOOO",
"OOOOOOOOOOOOOOOOOOOOOOOOOOO....ooo...OOOOOOOOOOOOOOOOOOOOOOOOOOO",
"OOOOOOOOOOOOOOOOOOOOOOOO...oooooooooo....OOOOOOOOOOOOOOOOOOOOOOO",
"OOOOOOOOOOOOOOOOOOOOOOOO...oooooooooo....OOOOOOOOOOOOOOOOOOOOOOO",
"OOOOOOOOOOOOOOOOOOOOOOOO...oooooooooo....OOOOOOOOOOOOOOOOOOOOOOO",
"OOOOOOOOOOOOOOOOO...OOOO...oooooooooo....OOO...OOOOOOOOOOOOOOOOO",
"OOOOOOOOOOOOOOOOO...OOOO...oooooooooo....OOO...OOOOOOOOOOOOOOOOO",
"OOOOOOOOOOOOOOOOO...OOOO...oooooooooo....OOO...OOOOOOOOOOOOOOOOO",
"OOOOOOOOOOOOOOOOO...OOOO...oooooooooo....OOO...OOOOOOOOOOOOOOOOO",
"OOOOOOOOOOOOOO...XXX....oooooooooooooXXXX...ooo....OOOOOOOOOOOOO",
"OOOOOOOOOOOOOO...XXX....oooooooooooooXXXX...ooo....OOOOOOOOOOOOO",
"OOOOOOOOOOOOOO...XXX....oooooooooooooXXXX...ooo....OOOOOOOOOOOOO",
"OOOOOOOOOOOOOO...XXXXXXX.................oooooo....OOOOOOOOOOOOO",
"OOOOOOOOOOOOOO...XXXXXXX.................oooooo....OOOOOOOOOOOOO",
"OOOOOOOOOOOOOO...XXXXXXX.................oooooo....OOOOOOOOOOOOO",
"OOOOOOOOOOOOOO...XXXXXXXXXXXXXXoooooooooooooooo....OOOOOOOOOOOOO",
"OOOOOOOOOOOOOO...XXXXXXXXXXXXXXoooooooooooooooo....OOOOOOOOOOOOO",
"OOOOOOOOOOOOOO...XXXXXXXXXXXXXXoooooooooooooooo....OOOOOOOOOOOOO",
"OOOOOOOOOOOOOO...XXXXXXXXXXXXXXoooooooooooooooo....OOOOOOOOOOOOO",
"OOOOOOOOOO....XXXXXXXXXXXXXXXXXoooooooooooooooooooo...OOOOOOOOOO",
"OOOOOOOOOO....XXXXXXXXXXXXXXXXXoooooooooooooooooooo...OOOOOOOOOO",
"OOOOOOOOOO....XXXXXXXXXXXXXXXXXoooooooooooooooooooo...OOOOOOOOOO",
"OOOOOOOOOO....XXXXXX    XXXoooooooooooooo   ooooooo...OOOOOOOOOO",
"OOOOOOOOOO....XXXXXX    XXXoooooooooooooo   ooooooo...OOOOOOOOOO",
"OOOOOOOOOO....XXXXXX    XXXoooooooooooooo   ooooooo...OOOOOOOOOO",
"OOOOOOO.......XXXXXXXXXXooooooo   ooooooooooooooooo.......OOOOOO",
"OOOOOOO.......XXXXXXXXXXooooooo   ooooooooooooooooo.......OOOOOO",
"OOOOOOO.......XXXXXXXXXXooooooo   ooooooooooooooooo.......OOOOOO",
"OOOOOOO.......XXXXXXXXXXooooooo   ooooooooooooooooo.......OOOOOO",
"OOOOOOOOOO....ooooooooooooo..........oooooooooooooo...OOOOOOOOOO",
"OOOOOOOOOO....ooooooooooooo..........oooooooooooooo...OOOOOOOOOO",
"OOOOOOOOOO....ooooooooooooo..........oooooooooooooo...OOOOOOOOOO",
"OOOOOOO...OOOO...oooooooooooooooooooooooooooooo....OOO....OOOOOO",
"OOOOOOO...OOOO...oooooooooooooooooooooooooooooo....OOO....OOOOOO",
"OOOOOOO...OOOO...oooooooooooooooooooooooooooooo....OOO....OOOOOO",
"OOOOOOO...OOOO...oooooooooooooooooooooooooooooo....OOO....OOOOOO",
"OOOOOOOOOOOOOOOOO..............................OOOOOOOOOOOOOOOOO",
"OOOOOOOOOOOOOOOOO..............................OOOOOOOOOOOOOOOOO",
"OOOOOOOOOOOOOOOOO..............................OOOOOOOOOOOOOOOOO",
"OOOOOOOOOOOOOOOOOOOOOOOO.......OOO...oooo...OOOOOOOOOOOOOOOOOOOO",
"OOOOOOOOOOOOOOOOOOOOOOOO.......OOO...oooo...OOOOOOOOOOOOOOOOOOOO",
"OOOOOOOOOOOOOOOOOOOOOOOO.......OOO...oooo...OOOOOOOOOOOOOOOOOOOO",
"OOOOOOOOOOOOOOOOOOOOOOOOOOOOOOOOOO.......OOOOOOOOOOOOOOOOOOOOOOO",
"OOOOOOOOOOOOOOOOOOOOOOOOOOOOOOOOOO.......OOOOOOOOOOOOOOOOOOOOOOO",
"OOOOOOOOOOOOOOOOOOOOOOOOOOOOOOOOOO.......OOOOOOOOOOOOOOOOOOOOOOO",
"OOOOOOOOOOOOOOOOOOOOOOOOOOOOOOOOOO.......OOOOOOOOOOOOOOOOOOOOOOO",
"OOOOOOOOOOOOOOOOOOOOOOOOOOOOOOOOOOOOOOOOOOOOOOOOOOOOOOOOOOOOOOOO",
"OOOOOOOOOOOOOOOOOOOOOOOOOOOOOOOOOOOOOOOOOOOOOOOOOOOOOOOOOOOOOOOO",
"OOOOOOOOOOOOOOOOOOOOOOOOOOOOOOOOOOOOOOOOOOOOOOOOOOOOOOOOOOOOOOOO"
};
