/* XPM */
static char *result[] = {
/* columns rows colors chars-per-pixel */
"64 64 5 1 ",
"  c black",
". c #9B5F36",
"X c #DF925E",
"o c #FFFAD3",
"O c None",
/* pixels */
"OOOOOOOOOOOOOOOOOOOOOOOOOOOOOOOOOOOOOOOOOOOOOOOOOOOOOOOOOOOOOOOO",
"OOOOOOOOOOOOOOOOOOOOOOOOOOOOOOOOOOOOOOOOOOOOOOOOOOOOOOOOOOOOOOOO",
"OOOOOOOOOOOOOOOOOOOOOOOOOOOOOOOOOOOOOOOOOOOOOOOOOOOOOOOOOOOOOOOO",
"OOOOOOOOOOOOOOOOOOOOOOOOOOOOOOOOOOOOOOOOOOOOOOOOOOOOOOOOOOOOOOOO",
"OOOOOOOOOOOOOOOOOOOOOOOOOOOOOOOOOOOOOOOOOOOOOOOOOOOOOOOOOOOOOOOO",
"OOOOOOO.........OOOOOOOOOOOOOOOOOOOOOOOOOOOOOOOOOOOOOOOOOOOOOOOO",
"OOOOOOO.........OOOOOOOOOOOOOOOOOOOOOOOOOOOOOOOOOOOOOOOOOOOOOOOO",
"OOOOOOO.........OOOOOOOOOOOOOOOOOOOOOOOOOOOOOOOOOOOOOOOOOOOOOOOO",
"OOOO...XXXXXX...OOOOOOOOOOOOOOO....OOOOOOOOOOOOOOOOOO...OOOOOOOO",
"OOOO...XXXXXX...OOOOOOOOOOOOOOO....OOOOOOOOOOOOOOOOOO...OOOOOOOO",
"OOOO...XXXXXX...OOOOOOOOOOOOOOO....OOOOOOOOOOOOOOOOOO...OOOOOOOO",
"O...XXXXXX...OOOOOOOOOOOOOOO...XXXX...OOOOOOOOOOOO...ooo...OOOOO",
"O...XXXXXX...OOOOOOOOOOOOOOO...XXXX...OOOOOOOOOOOO...ooo...OOOOO",
"O...XXXXXX...OOOOOOOOOOOOOOO...XXXX...OOOOOOOOOOOO...ooo...OOOOO",
"O...XXX...OOOOOOOOOOOOOOOOOO...XXXXXXX...............ooo...OOOOO",
"O...XXX...OOOOOOOOOOOOOOOOOO...XXXXXXX...............ooo...OOOOO",
"O...XXX...OOOOOOOOOOOOOOOOOO...XXXXXXX...............ooo...OOOOO",
"O...ooo...OOOOOOOOOOOOOOOOOO...XXXXXXXXXXXXXXXXooooooooo...OOOOO",
"O...ooo...OOOOOOOOOOOOOOOOOO...XXXXXXXXXXXXXXXXooooooooo...OOOOO",
"O...ooo...OOOOOOOOOOOOOOOOOO...XXXXXXXXXXXXXXXXooooooooo...OOOOO",
"O...oooooo...OOOOOOOOOOOO...XXXXXXXXXXXXXXXXXXXoooooooooooo...OO",
"O...oooooo...OOOOOOOOOOOO...XXXXXXXXXXXXXXXXXXXoooooooooooo...OO",
"O...oooooo...OOOOOOOOOOOO...XXXXXXXXXXXXXXXXXXXoooooooooooo...OO",
"OOOO...oooooo...............XXXXXXXXXX   XXXooooooooo   ooo...OO",
"OOOO...oooooo...............XXXXXXXXXX   XXXooooooooo   ooo...OO",
"OOOO...oooooo...............XXXXXXXXXX   XXXooooooooo   ooo...OO",
"OOOOOOO...oooooooooooo......XXXXXXXXXXXXXoooooo   ooooooooo.....",
"OOOOOOO...oooooooooooo......XXXXXXXXXXXXXoooooo   ooooooooo.....",
"OOOOOOO...oooooooooooo......XXXXXXXXXXXXXoooooo   ooooooooo.....",
"OOOOOOOOOO...oooooooooooo...oooooooooooooooo.........oooooo...OO",
"OOOOOOOOOO...oooooooooooo...oooooooooooooooo.........oooooo...OO",
"OOOOOOOOOO...oooooooooooo...oooooooooooooooo.........oooooo...OO",
"OOOOOOOOOO...ooooooooo...ooo...ooooooooooooooooooooooooo...OOO..",
"OOOOOOOOOO...ooooooooo...ooo...ooooooooooooooooooooooooo...OOO..",
"OOOOOOOOOO...ooooooooo...ooo...ooooooooooooooooooooooooo...OOO..",
"OOOOOOOOOO...oooooooooooooooooo.........................OOOOOOOO",
"OOOOOOOOOO...oooooooooooooooooo.........................OOOOOOOO",
"OOOOOOOOOO...oooooooooooooooooo.........................OOOOOOOO",
"OOOOOOOOOO...oooooooooooooooooooooooooooo......OOOOOOOOOOOOOOOOO",
"OOOOOOOOOO...oooooooooooooooooooooooooooo......OOOOOOOOOOOOOOOOO",
"OOOOOOOOOO...oooooooooooooooooooooooooooo......OOOOOOOOOOOOOOOOO",
"OOOOOOOOOO...oooooooooooooooooooooooooooo......OOOOOOOOOOOOOOOOO",
"OOOOOOOOOO...ooo...............ooooooo...ooo...OOOOOOOOOOOOOOOOO",
"OOOOOOOOOO...ooo...............ooooooo...ooo...OOOOOOOOOOOOOOOOO",
"OOOOOOOOOO...ooo...............ooooooo...ooo...OOOOOOOOOOOOOOOOO",
"OOOOOOOOOO...ooo...ooo...OOOOOO....ooo...ooo...OOOOOOOOOOOOOOOOO",
"OOOOOOOOOO...ooo...ooo...OOOOOO....ooo...ooo...OOOOOOOOOOOOOOOOO",
"OOOOOOOOOO...ooo...ooo...OOOOOO....ooo...ooo...OOOOOOOOOOOOOOOOO",
"OOOOOOOOOO...oooooo......OOOOOO....ooo......OOOOOOOOOOOOOOOOOOOO",
"OOOOOOOOOO...oooooo......OOOOOO....ooo......OOOOOOOOOOOOOOOOOOOO",
"OOOOOOOOOO...oooooo......OOOOOO....ooo......OOOOOOOOOOOOOOOOOOOO",
"OOOOOOOOOOOOO.........OOOOOOOOOOOOO......OOOOOOOOOOOOOOOOOOOOOOO",
"OOOOOOOOOOOOO.........OOOOOOOOOOOOO......OOOOOOOOOOOOOOOOOOOOOOO",
"OOOOOOOOOOOOO.........OOOOOOOOOOOOO......OOOOOOOOOOOOOOOOOOOOOOO",
"OOOOOOOOOOOOOOOOOOOOOOOOOOOOOOOOOOOOOOOOOOOOOOOOOOOOOOOOOOOOOOOO",
"OOOOOOOOOOOOOOOOOOOOOOOOOOOOOOOOOOOOOOOOOOOOOOOOOOOOOOOOOOOOOOOO",
"OOOOOOOOOOOOOOOOOOOOOOOOOOOOOOOOOOOOOOOOOOOOOOOOOOOOOOOOOOOOOOOO",
"OOOOOOOOOOOOOOOOOOOOOOOOOOOOOOOOOOOOOOOOOOOOOOOOOOOOOOOOOOOOOOOO",
"OOOOOOOOOOOOOOOOOOOOOOOOOOOOOOOOOOOOOOOOOOOOOOOOOOOOOOOOOOOOOOOO",
"OOOOOOOOOOOOOOOOOOOOOOOOOOOOOOOOOOOOOOOOOOOOOOOOOOOOOOOOOOOOOOOO",
"OOOOOOOOOOOOOOOOOOOOOOOOOOOOOOOOOOOOOOOOOOOOOOOOOOOOOOOOOOOOOOOO",
"OOOOOOOOOOOOOOOOOOOOOOOOOOOOOOOOOOOOOOOOOOOOOOOOOOOOOOOOOOOOOOOO",
"OOOOOOOOOOOOOOOOOOOOOOOOOOOOOOOOOOOOOOOOOOOOOOOOOOOOOOOOOOOOOOOO",
"OOOOOOOOOOOOOOOOOOOOOOOOOOOOOOOOOOOOOOOOOOOOOOOOOOOOOOOOOOOOOOOO"
};
