/* XPM */
static char *result[] = {
/* columns rows colors chars-per-pixel */
"64 64 5 1 ",
"  c black",
". c #9B5F36",
"X c #DF925E",
"o c #FFFAD3",
"O c None",
/* pixels */
"OOOOOOOOOOOOOOOOOOOOOOOOOOOOOOOOOOOOOOOOOOOOOOOOOOOOOOOOOOOOOOOO",
"OOOOOOOOOOOOOOOOOOOOOOOOOOOOOOOOOOOOOOOOOOOOOOOOOOOOOOOOOOOOOOOO",
"OOOOOOOOOOOOOOOOOOOOOOOOOOOOOOOOOOOOOOOOOOOOOOOOOOOOOOOOOOOOOOOO",
"OOOOOOOOOOOOOOOOOOOOOOOOOOOOOOOOOOOOOOOOOOOOOOOOOOOOOOOOOOOOOOOO",
"OOOOOOOOOOOOOOOOOOOOOOOOOOOOOOOOOOOOOOOOOOOOOOOOOOOOOOOOOOOOOOOO",
"OOOOOOOOOOOOOOOOOOOOOOOOOOOOOOOOOOOOOOOOOOOOOOOOOOOOOOOOOOOOOOOO",
"OOOOOOOOOOOOOOOOOOOOOOOOOOOOOOOOOOOOOOOOOOOOOOOOOOOOOOOOOOOOOOOO",
"OOOOOOOOOOOOOOOOOOOOOOOOOOOOOOOOOOOOOOOOOOOOOOOOOOOOOOOOOOOOOOOO",
"OOOOOOOOOOOOOOOOOOOOOOOOOOOOOOOOOOOOOOOOOOOOOOOOOOOOOOOOOOOOOOOO",
"OOOOOOOOOOOOOOOOOOO.....................OOOOOOOOOOOOOOOOOOOOOOOO",
"OOOOOOOOOOOOOOOOOOO.....................OOOOOOOOOOOOOOOOOOOOOOOO",
"OOOOOOOOOOOOOOOOOOO.....................OOOOOOOOOOOOOOOOOOOOOOOO",
"OOOOOOOOOOOOOOOO...ooooooooooooooooooooo...OOOOOOOOOOOOOOOOOOOOO",
"OOOOOOOOOOOOOOOO...ooooooooooooooooooooo...OOOOOOOOOOOOOOOOOOOOO",
"OOOOOOOOOOOOOOOO...ooooooooooooooooooooo...OOOOOOOOOOOOOOOOOOOOO",
"OOOOOOOOOOOO...oooooooooooooooooooooooooooo...OOOOOOOOOOOOOOOOOO",
"OOOOOOOOOOOO...oooooooooooooooooooooooooooo...OOOOOOOOOOOOOOOOOO",
"OOOOOOOOOOOO...oooooooooooooooooooooooooooo...OOOOOOOOOOOOOOOOOO",
"OOOOOOOOO...oooooooooooooooooooooo...oooXXXXXX...OOOOOOOOOOOOOOO",
"OOOOOOOOO...oooooooooooooooooooooo...oooXXXXXX...OOOOOOOOOOOOOOO",
"OOOOOOOOO...oooooooooooooooooooooo...oooXXXXXX...OOOOOOOOOOOOOOO",
"OOOOOO...XXX...oooooooooooooooo...ooo...XXXXXX...OOOOOOOOOOOOOOO",
"OOOOOO...XXX...oooooooooooooooo...ooo...XXXXXXooo...OOOOOOOOOOOO",
"OOOOOO...XXX...oooooooooooooooo...ooo...XXXXXXooo...OOOOOOOOOOOO",
"OOOOOO...XXXXXX................oooooo...XXXXXXooo...OOOOOOOOOOOO",
"OOOOOO...XXXXXX................oooooo...XXXXXXooo.........OOOOOO",
"OOOOOO...XXXXXX................oooooo...XXXXXXooo.........OOOOOO",
"OOOOOO...XXXXXXXXXXXXoooooooooooooooo...XXXXXXooo.........OOOOOO",
"OOOOOO...XXXXXXXXXXXXoooooooooooooooo...ooo...ooo...oooooo...OOO",
"OOOOOO...XXXXXXXXXXXXoooooooooooooooo...ooo...ooo...oooooo...OOO",
"OOO...XXXXXXXXXXXXXXXoooooooooooooooo...ooo...ooo...oooooo...OOO",
"OOO...XXXXXXXXXXXXXXXooooooooooooooooooo...oooooo......oooooo...",
"OOO...XXXXXXXXXXXXXXXooooooooooooooooooo...oooooo......oooooo...",
"OOO...XXXXXXXXXXXXXXXooooooooooooooooooo...oooooo......oooooo...",
"OOO...XXXXXXXXXXXXXXXooooooooooooooooooo...oooooo...OOO...ooo...",
"OOO...XXXXXXXXXXXXXXXooooooooooooooooooo...oooooo...OOO...ooo...",
"......XXXXXX      ooXooooooooooooooooooo...oooooo...OOO...ooo...",
"......XXXXXX      ooooooooo       oooooo...oooooo...OOO...XXX...",
"......XXXXXX      ooooooooo       oooooo...oooooo...OOO...XXX...",
"OOO...XXXXXXXX    ooooooooo       oooooo...oooooo...OOO...XXX...",
"OOO...XXXXXXXXXoooooo   oooooooooooooooo...ooo...OOOOOO...XXX...",
"OOO...XXXXXXXXXoooooo   oooooooooooooooo...ooo...OOOOOO...XXX...",
"...OOO...XXXXXXoooooo   oooooooooooooooo...ooo...OOOOOO...XXX...",
"...OOO...oooooooooooooooooooooooooooo...oooooo...OOO...XXX...OOO",
"...OOO...oooooooooooooooooooooooooooo...oooooo...OOO...XXX...OOO",
"OOOOOO...oooooooooooooooooooooooooooo...oooooo...OOO...XXX...OOO",
"OOOOOOOOO............................OOO......OOOOOO......OOOOOO",
"OOOOOOOOO............................OOO......OOOOOO......OOOOOO",
"OOOOOOOOO............................OOO......OOOOOO......OOOOOO",
"OOOOOOOOOOOOOOOOOOOOOOOOOOOOOOOOOOOOOOOOOOOOOOOOOOOOOOOOOOOOOOOO",
"OOOOOOOOOOOOOOOOOOOOOOOOOOOOOOOOOOOOOOOOOOOOOOOOOOOOOOOOOOOOOOOO",
"OOOOOOOOOOOOOOOOOOOOOOOOOOOOOOOOOOOOOOOOOOOOOOOOOOOOOOOOOOOOOOOO",
"OOOOOOOOOOOOOOOOOOOOOOOOOOOOOOOOOOOOOOOOOOOOOOOOOOOOOOOOOOOOOOOO",
"OOOOOOOOOOOOOOOOOOOOOOOOOOOOOOOOOOOOOOOOOOOOOOOOOOOOOOOOOOOOOOOO",
"OOOOOOOOOOOOOOOOOOOOOOOOOOOOOOOOOOOOOOOOOOOOOOOOOOOOOOOOOOOOOOOO",
"OOOOOOOOOOOOOOOOOOOOOOOOOOOOOOOOOOOOOOOOOOOOOOOOOOOOOOOOOOOOOOOO",
"OOOOOOOOOOOOOOOOOOOOOOOOOOOOOOOOOOOOOOOOOOOOOOOOOOOOOOOOOOOOOOOO",
"OOOOOOOOOOOOOOOOOOOOOOOOOOOOOOOOOOOOOOOOOOOOOOOOOOOOOOOOOOOOOOOO",
"OOOOOOOOOOOOOOOOOOOOOOOOOOOOOOOOOOOOOOOOOOOOOOOOOOOOOOOOOOOOOOOO",
"OOOOOOOOOOOOOOOOOOOOOOOOOOOOOOOOOOOOOOOOOOOOOOOOOOOOOOOOOOOOOOOO",
"OOOOOOOOOOOOOOOOOOOOOOOOOOOOOOOOOOOOOOOOOOOOOOOOOOOOOOOOOOOOOOOO",
"OOOOOOOOOOOOOOOOOOOOOOOOOOOOOOOOOOOOOOOOOOOOOOOOOOOOOOOOOOOOOOOO",
"OOOOOOOOOOOOOOOOOOOOOOOOOOOOOOOOOOOOOOOOOOOOOOOOOOOOOOOOOOOOOOOO",
"OOOOOOOOOOOOOOOOOOOOOOOOOOOOOOOOOOOOOOOOOOOOOOOOOOOOOOOOOOOOOOOO"
};
