/* XPM */
static char *result[] = {
/* columns rows colors chars-per-pixel */
"64 64 4 1 ",
"  c #9B5F36",
". c #DF925E",
"X c #FFFAD3",
"o c None",
/* pixels */
"oooooooooooooooooo   oooooooooooooooooooooo   oooooooooooooooooo",
"oooooooooooooooooo   oooooooooooooooooooooo   oooooooooooooooooo",
"oooooooooooooooooo   oooooooooooooooooooooo   oooooooooooooooooo",
"ooooooooooooooo   XXX   ooooooooooooooo    ...   ooooooooooooooo",
"ooooooooooooooo   XXX   ooooooooooooooo    ...   ooooooooooooooo",
"ooooooooooooooo   XXX   ooooooooooooooo    ...   ooooooooooooooo",
"ooooooooooooooo   XXXXXX               .......   ooooooooooooooo",
"ooooooooooooooo   XXXXXX               .......   ooooooooooooooo",
"ooooooooooooooo   XXXXXX               .......   ooooooooooooooo",
"ooooooooooooooo   XXXXXXXXXXXXXXX.............   ooooooooooooooo",
"ooooooooooooooo   XXXXXXXXXXXXXXX.............   ooooooooooooooo",
"ooooooooooooooo   XXXXXXXXXXXXXXX.............   ooooooooooooooo",
"oooooooooooo   XXXXXXXXXXXXXXXXXX................   oooooooooooo",
"oooooooooooo   XXXXXXXXXXXXXXXXXX................   oooooooooooo",
"oooooooooooo   XXXXXXXXXXXXXXXXXX................   oooooooooooo",
"oooooooooooo   XXXXXXXXXXXXXXXXXXXXX.............   oooooooooooo",
"oooooooooooo   XXXXXXXXXXXXXXXXXXXXX.............   oooooooooooo",
"oooooooooooo   XXXXXXXXXXXXXXXXXXXXX.............   oooooooooooo",
"ooooooooo      XXXXXXXXXXXXXXXXXX          ......      ooooooooo",
"ooooooooo      XXXXXXXXXXXXXXXXXX          ......      ooooooooo",
"ooooooooo      XXXXXXXXXXXXXXXXXX          ......      ooooooooo",
"oooooooooooo   XXXXXXXXXXXXXXX   ......    XXXXXX   oooooooooooo",
"oooooooooooo   XXXXXXXXXXXXXXX   ......    XXXXXX   oooooooooooo",
"oooooooooooo   XXXXXXXXXXXXXXX   ......    XXXXXX   oooooooooooo",
"ooooooooo   ooo   XXX   XXX   ......       XXX   ooo   ooooooooo",
"ooooooooo   ooo   XXX   XXX   ......       XXX   ooo   ooooooooo",
"ooooooooo   ooo   XXX   XXX   ......       XXX   ooo   ooooooooo",
"oooooooooooooooooo   XXXXXX   ...   XXXXXXX   oooooooooooooooooo",
"oooooooooooooooooo   XXXXXX   ...   XXXXXXX   oooooooooooooooooo",
"oooooooooooooooooo   XXXXXX   ...   XXXXXXX   oooooooooooooooooo",
"oooooooooooooooooo   ...XXX   XXX   XXXXXXX   oooooooooooooooooo",
"oooooooooooooooooo   ...XXX   XXX   XXXXXXX   oooooooooooooooooo",
"oooooooooooooooooo   ...XXX   XXX   XXXXXXX   oooooooooooooooooo",
"oooooooooooooooooo   ...XXX   XXX   XXXXXXX   oooooooooooooooooo",
"oooooooooooooooooo   ...XXX   XXX   XXXXXXX   oooooooooooooooooo",
"oooooooooooooooooo   ...XXX   XXX   XXXXXXX   oooooooooooooooooo",
"oooooooooooooooooo   ...XXX   XXX   XXXXXXX   oooooooooooooooooo",
"oooooooooooooooooo   ...XXX   XXX   XXXXXXX   oooooooooooooooooo",
"oooooooooooooooooo   ...XXX   XXX   XXXXXXX   oooooooooooooooooo",
"oooooooooooooooooo   ...XXX   XXX   XXXXXXX   oooooooooooooooooo",
"oooooooooooooooooo   XXXXXXXXXXXXXXXXXXXXXX   oooooooooooooooooo",
"oooooooooooooooooo   XXXXXXXXXXXXXXXXXXXXXX   oooooooooooooooooo",
"oooooooooooooooooo   XXXXXXXXXXXXXXXXXXXXXX   oooooooooooooooooo",
"oooooooooooooooooo   XXXXXXXXXXXXXXXXXXXXXX   oooooooooooooooooo",
"oooooooooooooooooo   XXXXXXXXXXXXXXXXXXXXXX   oooooooooooooooooo",
"oooooooooooooooooo   XXXXXXXXXXXXXXXXXXXXXX   oooooooooooooooooo",
"oooooooooooooooooo   XXXXXXXXX   XXXXXXXXXX   oooooooooooooooooo",
"oooooooooooooooooo   XXXXXXXXX   XXXXXXXXXX   oooooooooooooooooo",
"oooooooooooooooooo   XXXXXXXXX   XXXXXXXXXX   oooooooooooooooooo",
"ooooooooooooooooooooo   XXXXXX   XXXXXX    ooooooooooooooooooooo",
"ooooooooooooooooooooo   XXXXXX   XXXXXX    ooooooooooooooooooooo",
"ooooooooooooooooooooo   XXXXXX   XXXXXX    ooooooooooooooooooooo",
"ooooooooooooooooooooo   XXX   ooo   XXX    ooooooooooooooooooooo",
"ooooooooooooooooooooo   XXX   ooo   XXX    ooooooooooooooooooooo",
"ooooooooooooooooooooo   XXX   ooo   XXX    ooooooooooooooooooooo",
"ooooooooooooooooooooo   XXX   ooo   XXX    ooooooooooooooooooooo",
"ooooooooooooooooooooo   XXX   ooo   XXX    ooooooooooooooooooooo",
"ooooooooooooooooooooo   XXX   ooo   XXX    ooooooooooooooooooooo",
"oooooooooooooooooooooooo      ooo      ooooooooooooooooooooooooo",
"oooooooooooooooooooooooo      ooo      ooooooooooooooooooooooooo",
"oooooooooooooooooooooooo      ooo      ooooooooooooooooooooooooo",
"oooooooooooooooooooooooooooooooooooooooooooooooooooooooooooooooo",
"oooooooooooooooooooooooooooooooooooooooooooooooooooooooooooooooo",
"oooooooooooooooooooooooooooooooooooooooooooooooooooooooooooooooo"
};
