/* XPM */
static char *result[] = {
/* columns rows colors chars-per-pixel */
"64 64 5 1 ",
"  c black",
". c #9B5F36",
"X c #DF925E",
"o c #FFFAD3",
"O c None",
/* pixels */
"OOOOOOOOOOOOOOOOOOOOOOOOOOOOOOOOOOOOOOOOOOOOOOOOOOOOOOOOOOOOOOOO",
"OOOOOOOOOOOOOOOOOOOOOOOOOOOOOOOOOOOOOOOOOOOOOOOOOOOOOOOOOOOOOOOO",
"OOOOOOOOOOOOOOOOOOOOOOOOOOOOOOOOOOOOOOOOOOOOOOOOOOOOOOOOOOOOOOOO",
"OOOOOOOOOOOOOOOOOOOOOOOOOOOOOOOOOOOOOOOOOOOOOOOOOOOOOOOOOOOOOOOO",
"OOOOOOOOOOOOOOOOOOOOOOOOOOOOOOOOOOOOOOOOOOOOOOOOOOOOOOOOOOOOOOOO",
"OOOOOOOOOOOOOOOOOOOOOOOOOOOOOOOOOOOOOOOOOOOOOOOOO.........OOOOOO",
"OOOOOOOOOOOOOOOOOOOOOOOOOOOOOOOOOOOOOOOOOOOOOOOOO.........OOOOOO",
"OOOOOOOOOOOOOOOOOOOOOOOOOOOOOOOOOOOOOOOOOOOOOOOOO.........OOOOOO",
"OOOOOOOOO...OOOOOOOOOOOOOOOOOO...OOOOOOOOOOOOOOOO...XXXXXX...OOO",
"OOOOOOOOO...OOOOOOOOOOOOOOOOOO...OOOOOOOOOOOOOOOO...XXXXXX...OOO",
"OOOOOOOOO...OOOOOOOOOOOOOOOOOO...OOOOOOOOOOOOOOOO...XXXXXX...OOO",
"OOOOOO...XXX...OOOOOOOOOOOO...ooo....OOOOOOOOOOOOOOO...XXXXXX...",
"OOOOOO...XXX...OOOOOOOOOOOO...ooo....OOOOOOOOOOOOOOO...XXXXXX...",
"OOOOOO...XXX...OOOOOOOOOOOO...ooo....OOOOOOOOOOOOOOO...XXXXXX...",
"OOOOOO...XXX...............oooooo....OOOOOOOOOOOOOOOOOO...XXX...",
"OOOOOO...XXX...............oooooo....OOOOOOOOOOOOOOOOOO...XXX...",
"OOOOOO...XXX...............oooooo....OOOOOOOOOOOOOOOOOO...XXX...",
"OOOOOO...XXXXXXXXXooooooooooooooo....OOOOOOOOOOOOOOOOOO...ooo...",
"OOOOOO...XXXXXXXXXooooooooooooooo....OOOOOOOOOOOOOOOOOO...ooo...",
"OOOOOO...XXXXXXXXXooooooooooooooo....OOOOOOOOOOOOOOOOOO...ooo...",
"OOO...XXXXXXXXXXXXooooooooooooooooooo...OOOOOOOOOOOO...oooooo...",
"OOO...XXXXXXXXXXXXooooooooooooooooooo...OOOOOOOOOOOO...oooooo...",
"OOO...XXXXXXXXXXXXooooooooooooooooooo...OOOOOOOOOOOO...oooooo...",
"OOO...XXX   XXXooooooooo   oooooooooo...............oooooo...OOO",
"OOO...XXX   XXXooooooooo   oooooooooo...............oooooo...OOO",
"OOO...XXX   XXXooooooooo   oooooooooo...............oooooo...OOO",
"......XXXXXXooo   ooooooooooooooooooo......oooooooooooo...OOOOOO",
"......XXXXXXooo   ooooooooooooooooooo......oooooooooooo...OOOOOO",
"......XXXXXXooo   ooooooooooooooooooo......oooooooooooo...OOOOOO",
"OOO...oooooo.........oooooooooooooooo...XXXoooXXXooo...OOOOOOOOO",
"OOO...oooooo.........oooooooooooooooo...XXXoooXXXooo...OOOOOOOOO",
"OOO...oooooo.........oooooooooooooooo...XXXoooXXXooo...OOOOOOOOO",
"...OOO...oooooooooooooooooooooooo....ooo...XXXXXXooo...OOOOOOOOO",
"...OOO...oooooooooooooooooooooooo....ooo...XXXXXXooo...OOOOOOOOO",
"...OOO...oooooooooooooooooooooooo....ooo...XXXXXXooo...OOOOOOOOO",
"OOOOOOOOO........................ooooooooooXXXoooooo...OOOOOOOOO",
"OOOOOOOOO........................ooooooooooXXXoooooo...OOOOOOOOO",
"OOOOOOOOO........................ooooooooooXXXoooooo...OOOOOOOOO",
"OOOOOOOOOOOOOOOOOO......oooooooooooooooooooooooooooo...OOOOOOOOO",
"OOOOOOOOOOOOOOOOOO......oooooooooooooooooooooooooooo...OOOOOOOOO",
"OOOOOOOOOOOOOOOOOO......oooooooooooooooooooooooooooo...OOOOOOOOO",
"OOOOOOOOOOOOOOOOOO......oooooooooooooooooooooooooooo...OOOOOOOOO",
"OOOOOOOOOOOOOOOOOO...ooo...oooooo................ooo...OOOOOOOOO",
"OOOOOOOOOOOOOOOOOO...ooo...oooooo................ooo...OOOOOOOOO",
"OOOOOOOOOOOOOOOOOO...ooo...oooooo................ooo...OOOOOOOOO",
"OOOOOOOOOOOOOOOOOO...ooo...ooo...OOOOOOO...ooo...ooo...OOOOOOOOO",
"OOOOOOOOOOOOOOOOOO...ooo...ooo...OOOOOOO...ooo...ooo...OOOOOOOOO",
"OOOOOOOOOOOOOOOOOO...ooo...ooo...OOOOOOO...ooo...ooo...OOOOOOOOO",
"OOOOOOOOOOOOOOOOOOOOO......ooo...OOOOOOO......oooooo...OOOOOOOOO",
"OOOOOOOOOOOOOOOOOOOOO......ooo...OOOOOOO......oooooo...OOOOOOOOO",
"OOOOOOOOOOOOOOOOOOOOO......ooo...OOOOOOO......oooooo...OOOOOOOOO",
"OOOOOOOOOOOOOOOOOOOOOOOO......OOOOOOOOOOOOO.........OOOOOOOOOOOO",
"OOOOOOOOOOOOOOOOOOOOOOOO......OOOOOOOOOOOOO.........OOOOOOOOOOOO",
"OOOOOOOOOOOOOOOOOOOOOOOO......OOOOOOOOOOOOO.........OOOOOOOOOOOO",
"OOOOOOOOOOOOOOOOOOOOOOOOOOOOOOOOOOOOOOOOOOOOOOOOOOOOOOOOOOOOOOOO",
"OOOOOOOOOOOOOOOOOOOOOOOOOOOOOOOOOOOOOOOOOOOOOOOOOOOOOOOOOOOOOOOO",
"OOOOOOOOOOOOOOOOOOOOOOOOOOOOOOOOOOOOOOOOOOOOOOOOOOOOOOOOOOOOOOOO",
"OOOOOOOOOOOOOOOOOOOOOOOOOOOOOOOOOOOOOOOOOOOOOOOOOOOOOOOOOOOOOOOO",
"OOOOOOOOOOOOOOOOOOOOOOOOOOOOOOOOOOOOOOOOOOOOOOOOOOOOOOOOOOOOOOOO",
"OOOOOOOOOOOOOOOOOOOOOOOOOOOOOOOOOOOOOOOOOOOOOOOOOOOOOOOOOOOOOOOO",
"OOOOOOOOOOOOOOOOOOOOOOOOOOOOOOOOOOOOOOOOOOOOOOOOOOOOOOOOOOOOOOOO",
"OOOOOOOOOOOOOOOOOOOOOOOOOOOOOOOOOOOOOOOOOOOOOOOOOOOOOOOOOOOOOOOO",
"OOOOOOOOOOOOOOOOOOOOOOOOOOOOOOOOOOOOOOOOOOOOOOOOOOOOOOOOOOOOOOOO",
"OOOOOOOOOOOOOOOOOOOOOOOOOOOOOOOOOOOOOOOOOOOOOOOOOOOOOOOOOOOOOOOO"
};
