/* XPM */
static char *result[] = {
/* columns rows colors chars-per-pixel */
"64 64 10 1 ",
"  c none",
". c #DF8339",
"X c #793220",
"o c #FFE8AD",
"O c #FF6A19",
"+ c #FFCC0D",
"@ c #FFA10D",
"# c #260419",
"$ c #EC418A",
"% c #FF85D5",
/* pixels */
"                                                                ",
"                                                                ",
"                                                                ",
"                                                                ",
"                                                                ",
"                                                                ",
"                                                                ",
"                                                                ",
"                                                                ",
"                                                                ",
"                                                                ",
"                                                                ",
"                          ........XXXXX                         ",
"                          ........XXXXX                         ",
"                     .....ooooooooOOOOOXXXXX                    ",
"                     .....ooooooooOOOOOXXXXX                    ",
"                     .....ooooooooOOOOOXXXXX                    ",
"                   ..ooooo+++++++++++++OOOOOXX                  ",
"                   ..ooooo+++++++++++++OOOOOXX                  ",
"                ...oo++++++++++++++++++++@@@OOXXX               ",
"                ...oo++++++++++++++++++++@@@OOXXX               ",
"                ...oo++++++++++++++++++++@@@OOXXX               ",
"                ...oo++++++++  ++++++++@@@@@OOXXX               ",
"                ...oo++++++++  ++++++++@@@@@OOXXX               ",
"              ..ooo++     ++++++++++@@@@@@@@OOXXX               ",
"              ..ooo++     ++++++++++@@@@@@@@OOXXX               ",
"              ..ooo++     ++++++++++@@@@@@@@OOXXX               ",
"              ..ooo++     ++++++++++@@@@@@@@OOXXX               ",
"              ..ooo++     ++++++++++@@@@@@@@OOXXX               ",
"              ..   XX+++++++++++++@@@@@@@@@@OOXXX               ",
"              ..   XX+++++++++++++@@@@@@@@@@OOXXX               ",
"              ..   XX+++++++++++++@@@@@@@@@@OOXXX               ",
"              ..#####+++++++++++++@@   XX@@@OOXXX               ",
"              ..#####+++++++++++++@@   XX@@@OOXXX               ",
"              ..ooo+++++XXXXXXXXXX@@#####@@@OOXXX               ",
"              ..ooo+++++XXXXXXXXXX@@#####@@@OOXXX               ",
"              ..ooo+++++XXXXXXXXXX@@#####@@@OOXXX               ",
"                ...oo+++##$$$$$###++@@@@@@@@OOXXX               ",
"                ...oo+++##$$$$$###++@@@@@@@@OOXXX               ",
"                ...oo+++##%%%%%###+++++@@@@@OOXXX               ",
"                ...oo+++##%%%%%###+++++@@@@@OOXXX               ",
"                ...oo+++##%%%%%###+++++@@@@@OOXXX               ",
"                   ..ooo++#####+++++@@@@@@@@OOXXX               ",
"                   ..ooo++#####+++++@@@@@@@@OOXXX               ",
"                     XXXOO@@@@@@@@@@@@@@@@@@OOXXX               ",
"                     XXXOO@@@@@@@@@@@@@@@@@@OOXXX               ",
"                     XXXOO@@@@@@@@@@@@@@@@@@OOXXX               ",
"                        XXOOOOOOOOOOOOOOOOOOXX                  ",
"                        XXOOOOOOOOOOOOOOOOOOXX                  ",
"                          XXXXXXXXXXXXXXXXXX                    ",
"                          XXXXXXXXXXXXXXXXXX                    ",
"                          XXXXXXXXXXXXXXXXXX                    ",
"                               XXX++...XX                       ",
"                               XXX++...XX                       ",
"                                  XXXXX                         ",
"                                  XXXXX                         ",
"                                  XXXXX                         ",
"                                                                ",
"                                                                ",
"                                                                ",
"                                                                ",
"                                                                ",
"                                                                ",
"                                                                "
};
