/* XPM */
static char *result[] = {
/* columns rows colors chars-per-pixel */
"64 64 188 2 ",
"   c #410B0C",
".  c #430C0D",
"X  c #450C0D",
"o  c #470D0E",
"O  c #480E0F",
"+  c #4C0D0E",
"@  c #4D0F0F",
"#  c #520F0F",
"$  c #560E0F",
"%  c #570F0F",
"&  c #570F10",
"*  c #511010",
"=  c #531111",
"-  c #521212",
";  c #561211",
":  c #551212",
">  c #561313",
",  c #591010",
"<  c #5F1313",
"1  c #5A1413",
"2  c #581414",
"3  c #5F1614",
"4  c #5E1615",
"5  c #621212",
"6  c #621213",
"7  c #601715",
"8  c #6A1213",
"9  c #6D1515",
"0  c #6F1716",
"q  c #631815",
"w  c #771617",
"e  c #731B1A",
"r  c #741A19",
"t  c #761B1A",
"y  c #791B19",
"u  c #7C1A1A",
"i  c #7A1C1B",
"p  c #7C1D1B",
"a  c #7E1D1A",
"s  c #502A1B",
"d  c #57311F",
"f  c #602319",
"g  c #612419",
"h  c #61241A",
"j  c #66281C",
"k  c #66281D",
"l  c #403320",
"z  c #463823",
"x  c #483922",
"c  c #4B3C25",
"v  c #4C3C26",
"b  c #4D3E27",
"n  c #4E3F27",
"m  c #5A3425",
"M  c #513F27",
"N  c #56452A",
"B  c #56462B",
"V  c #5F4929",
"C  c #5A482C",
"Z  c #604B2B",
"A  c #634C2B",
"S  c #624D2E",
"D  c #66502E",
"F  c #614D31",
"G  c #644E31",
"H  c #615130",
"J  c #655033",
"K  c #675431",
"L  c #665336",
"P  c #6A5330",
"I  c #6B5330",
"U  c #6D5632",
"Y  c #725935",
"T  c #745C37",
"R  c #795E36",
"E  c #725B3A",
"W  c #735D3D",
"Q  c #7F6136",
"!  c #796038",
"~  c #675D4D",
"^  c #7E6741",
"/  c #6D6455",
"(  c #676B6D",
")  c #6C7172",
"_  c #717678",
"`  c #767A7C",
"'  c #757C7D",
"]  c #831A1A",
"[  c #811E1B",
"{  c #851C1B",
"}  c #841F1B",
"|  c #811F1C",
" . c #861C1C",
".. c #871E1C",
"X. c #891E1C",
"o. c #891E1D",
"O. c #8B1F1F",
"+. c #84201C",
"@. c #87201C",
"#. c #8B241F",
"$. c #92201E",
"%. c #90221E",
"&. c #94211E",
"*. c #97211E",
"=. c #8E2120",
"-. c #932221",
";. c #9C2522",
":. c #9A2725",
">. c #902924",
",. c #9B2823",
"<. c #A02622",
"1. c #A32722",
"2. c #A52722",
"3. c #A02A27",
"4. c #A52924",
"5. c #A72B26",
"6. c #A82822",
"7. c #AA2822",
"8. c #AA2A24",
"9. c #A92B26",
"0. c #AC2A24",
"q. c #AA2C26",
"w. c #AE2C26",
"e. c #AE2E27",
"r. c #B02E27",
"t. c #B12F28",
"y. c #AE302B",
"u. c #B23029",
"i. c #B3312B",
"p. c #B5332C",
"a. c #B1342E",
"s. c #B5352F",
"d. c #B7352E",
"f. c #B8362F",
"g. c #BA3831",
"h. c #BC3A33",
"j. c #835936",
"k. c #845A36",
"l. c #80643B",
"z. c #896A3D",
"x. c #876D47",
"c. c #927243",
"v. c #947547",
"b. c #96774A",
"n. c #987A4E",
"m. c #9A7C51",
"M. c #886062",
"N. c #7A8182",
"B. c #7D8384",
"V. c #7F8586",
"C. c #828688",
"Z. c #84888A",
"A. c #878D8F",
"S. c #8A8C8E",
"D. c #8D8E90",
"F. c #909092",
"G. c #A6AEB0",
"H. c #B4BBBD",
"J. c #BDBDBE",
"K. c #BFBFC1",
"L. c #BEC5C7",
"P. c #C0C3C5",
"I. c #C2C8CA",
"U. c #C3CCCE",
"Y. c #CACACB",
"T. c #C8CCCD",
"R. c #CACED0",
"E. c #C4D0D2",
"W. c #C8D3D5",
"Q. c #CDD6D8",
"!. c #CFD8DA",
"~. c #D0D5D7",
"^. c #D4D4D6",
"/. c #D5DCDE",
"(. c #D7DDDE",
"). c #DADFE1",
"_. c #DFDFE0",
"`. c #DFE3E4",
"'. c #E0E3E4",
"]. c #E4E6E7",
"[. c #E9E9EA",
"{. c #E9ECEE",
"}. c #EEEEEF",
"|. c #F2F2F4",
" X c #F2F3F5",
".X c #F7F7F8",
"XX c #FBFBFD",
"oX c None",
/* pixels */
"oXoXoXoXoXoXoXoXoXoXoXoXoXoXoXoXoXoXoXoXoXoXoXoXoXoXoXoXoXoXoXoXoXoXoXoXoXoXoXoXoXoXoXoXoXoXoXoXoXoXoXoXoXoXoXoXoXoXoXoXoXoXoXoX",
"oXoXoXoXoXoXoXoXoXoXoXoXoXoXoXoXoXoXoXoXoXoXoXoXoXoXoXoXoXoXoXoXoXoXoXoXoXoXoXoXoXoXoXoXoXoXoXoXoXoXoXoXoXoXoXoXoXoXoXoXoXoXoXoX",
"oXoXoXoXoXoXoXoXoXoXoXoXoXoXoXoXoXoXoXoXoXoXoXoXoXoXoXoXoXoXoXoXoXoXoXoXoXoXoXoXoXoXoXoXoXoXoXoXoXoXoXoXoXoXoXoXoXoXoXoXoXoXoXoX",
"oXoXoXoXoXoXoXoXoXoXoXoXoXoXoXoXoXoXoXoXoXoXoXoXoXoXoXoXoXoXoXoXoXoXoXoXoXoXoXoXoXoXoXoXoXoXoXoXoXoXoXoXoXoXoXoXoXoXoXoXoXoXoXoX",
"oXoXoXoXoXoXoXoXoXoXoXoXoXoXoXoXoXoXoXoXoXoXoXoXoXoXoXoXoXoXoXoXoXoXoXoXoXoXoXoXoXoXoXoXoXoXoXoXoXoXoXoXoXoXoXoXoXoXoXoXoXoXoXoX",
"oXoXoXoXoXoXoXoXoXoXoXoXoXoXoXoXoXoXoXoXoXoXoXoXoXoXoXoXoXoXoXoXoXoXoXoXoXoXoXoXoXoXoXoXoXoXoXoXoXoXoXoXoXoXoXoXoXoXoXoXoXoXoXoX",
"oXoXoXoXoXoXoXoXoXoXoXoXoXoXoXoXoXoXoXoXoXoXoXoXoXoXoXoXoXoXoXoXoXoXoXoXoXoXoXoXoXoXoXoXoXoXoXoXoXoXoXoXoXoXoXoXoXoXoXoXoXoXoXoX",
"oXoXoXoXoXoXoXoXoXoXoXoXoXoXoXoXoXoXoXoXoXoXoXoXoXoXoXoXoXoXoXoXoXoXoXoXoXoXoXoXoXoXoXoXoXoXoXoXoXoXoXoXoXoXoXoXoXoXoXoXoXoXoXoX",
"oXoXoXoXoXoXoXoXoXoXoXoXoXoXoXoXoXoXoXoXoXoXoXoXoXoXoXoXoXoXoXoXoXoXoXoXoXoXoXoXoXoXoXoXoXoXoXoXoXoXoXoXoXoXoXoXoXoXoXoXoXoXoXoX",
"oXoXoXoXoXoXoXoXoXoXoXoXoXoXoXoXoXoXoXoXoXoXoXoXoXoXoXoXoXoXoXoXoXoXoXoXoXoXoXoXoX/././.oXoXoXoXoXoXoXoXoXoXoXoXoXoXoXoXoXoXoXoX",
"oXoXoXoXoXoXoXoXoXoXoXoXoXoXoXoXoXoXoXoXoXoXoXoXoXoXoXoXoXoXoXoXoXoXoXoXoXoXoX[.`./.[./.).[.oXoXoXoXoXoXoXoXoXoXoXoXoXoXoXoXoXoX",
"oXoXoXoXoXoXoXoXoXoXoXoXoXoXoXoXoXoXoXoXoXoXoXoXoXoXoXoXoXoXoXoXoXoXoXoXoXoX[.[.[.[.[.Q.(.[.[.oXoXoXoXoXoXoXoXoXoXoXoXoXoXoXoXoX",
"oXoXoXoXoXoXoXoXoXoXoXoXoXoXoXoXoXoXoXoXoXoXoXoXoXoXoXoXoXoXoXoXoXoXoX/.).[./.]._.K.K.U.I.K.K./././.oXoXoXoXoXoXoXoXoXoXoXoXoXoX",
"oXoXoXoXoXoXoXoXoXoXoXoXoXoXoXoXoXoXoXoXoXoXoXoXoXoXoXoXoXoXoXoXoX/././././.~.K.K.~././././.R.K.K.E.E.E.oXoXoXoXoXoXoXoXoXoXoXoX",
"oXoXoXoXoXoXoXoXoXoXoXoXoXoXoXoXoXoXoXoXoXoXoXoXoXoXoXoXoXoXoXoXG.G.G.E.E.P.K.Y.[.[.|.[.[.|.[.[.K.K.I.E.E.oXoXoXoXoXoXoXoXoXoXoX",
"oXoXoXoXoXoXoXoXoXoXoXoXoXoXoXoXoXoXoXoXoXoXoXoXoXoXoXoXoX-.=.=.8 8 8 G.G.H.E.W. XXXXXXXXXXXXXXX[.[.^.K.K.E.E.!.oXoXoXoXoXoXoXoX",
"oXoXoXoXoXoXoXoXoXoXoXoXoXoXoXoXoXoXoXoXoXoXoXoXoXoXoXu.e.<.<.-.=.=.8 8 M.G.G././.}.XXXXXXXXXXXXXX|.[.[.K.K.K./././.oXoXoXoXoXoX",
"oXoXoXoXoXoXoXoXoXoXoXoXoXoXoXoXoXoXoXoXoXoXoXoXoX] u.d.h.h.h.5.<.;.=.=.u 8 8 G.G.T.[.[..XXXXXXXXXXXXXXX[.[./.K.K.^.[.[.oXoXoXoX",
"oXoXoXoXoXoXoXoXoXoXoXoXoXoXoXoXoXoXoXoXoXoXoX7.7.] ] 3.h.h.h.h.s.;.=.=.=.=.8 8 8 G.G.T.[.[..XXXXXXXXXXX[.[./.E.I.I.E.[.)./.oXoX",
"oXoXoXoXoXoXoXoXoXoXoXoXoXoXoXoXoXoXoXoXoX7.7.7.7.7.&.=.=.h.h.h.h.h.a.=.=.=.=.=.8 8 M.G.G.[.[.}.XXXXXXXX.X/./.I.K.K.'.[.[./././.",
"oXoXoXoXoXoXoXoXoXoXoXoXoXoXoXoXoXoXoX7.7.w.u.r.7.7.2.<.<.=.=.=.h.h.g.<.<.-.=.O.] ] w 8 8 G.G.T././.{.[.[.K.K.Y.[.[.[.[.[.Z.Z.Z.",
"oXoXoXoXoXoXoXoXoXoXoXoXoXoXoXoXoX7.7.7.u.u.r.7.7.w.7.0.9.<.<.=.=.3.h.h.5.<.;.=.=. .] ] 8 8 8 G.G.E.E.I.K.K.~./.).[.[.J.F.Z.C.N.",
"oXoXoXoXoXoXoXoXoXoXoXoXoXoXoX<.<.7.7.w.u.u.7.7.0.u.u.u.u.u.<.2.*.] ] h.g.u.<.<.;.=.=. .] ] 8 8 M.G.G.K.U.W././.].[.F.F.F.Z.N.N.",
"oXoXoXoXoXoXoXoXoXoXoXoXoX<.<.2.7.7.r.u.p.h.u.0.7.7.<.e.u.u.u.w.7.7.7.] ] ] <.-.-.<.<.<.y.a.=.<.{ 8 8 G.G.L./.S.F.F.F.F.F.V.N.N.",
"oXoXoXoXoXoXoXoXoXoXoX7.7.1.<.1.0.u.u.u.u.h.h.i.w.u.<.<.<.u.u.r.7.7.7.<.<.] ] o.=.=.;.<.5.h.h.5.<.<.8 8 M.A.` S.D.F.F.F.N.N.N.) ",
"oXoXoXoXoXoXoXoXoXh.u.u.<.<.<.7.7.u.u.u.u.u.u.h.h.d.u.u.7.7.0.<.<.6.7.6.<.<.$.] ] =.=.=.=.=.:.<.<.=.=.=.  ( ` V.Z.F.N.N.N.) ( ( ",
"oXoXoXoXoXoXoXh.h.d.7.7.1.<.<.u.u.u.u.u.u.u.u.u.u.d.h.h.g.h.i.u.u.8.7.6.<.<.1.<.<.] ] ] =.=.=.=.=.2 * *   ( _ B.N.N.' ( ( ( V V ",
"oXoXoXoXoXu.h.h.g.u.r.7.7.7.7.0.u.u.u.u.u.u.u.u.u.u.u.h.h.h.h.h.u.u.d.u.u.f.7.0.0.7.7.] ] o.=.e q 2 * *   ( _ N.N.) ( ( / U V Z ",
"oXoXoX7.7.r.h.h.h.<.6.0.u.7.7.w.u.u.u.u.u.u.u.u.u.u.u.u.u.g.u.d.h.h.h.h.h.h.h.p.p.f.7.7.*.] O 2 q * * *   ( _ ) ( ( / W W P H H ",
"oX<.<.2.7.h.h.g.u.<.6.0.r.7.7.w.u.u.u.u.u.u.u.u.u.u.u.0.0.u.u.u.u.u.h.h.h.h.h.h.s.4.u.#.q O O 2 q : 2 2   ( ( ( U W W b v V K U ",
"9 ..<.<.0.u.d.h.h.q.7.7.u.u.r.7.7.u.u.u.u.u.u.u.u.u.u.r.7.7.r.u.u.p.h.h.h.h.s.<.<.y 1 q 7 O O 2 2 2 2 o   ( ~ U U L l l v V U U ",
"9 9 9 <.<.1.u.u.d.h.h.p.u.u.u.u.u.u.u.u.u.u.u.u.u.u.9.u.u.7.7.7.u.u.u.u.u.t.u.u.* * 1 q 2 O O 2 2 o     s V D S l l l Q l V E W ",
"9 9 9 t +.+.u.u.u.7.7.h.h.g.u.u.u.u.u.u.u.u.u.u.7.7.<.7.7.7.7.7.u.u.r.7.7.[ : * * 2 4 q 2 O O       U U V x l l B Q J Y v V W U ",
"9 9 9 9 a +.+.,.u.u.7.7.i.h.g.u.u.0.u.u.u.u.u.u.u.7.<.1.7.7.r.u.p.f.7.@.2 2 : * * 2 2 2 2 .     d W U S l l l N N N J J v V U U ",
"9 9 9 9 9 9 +.+.+.u.u.u.7.7.w.u.u.7.7.0.w.7.r.7.7.7.7.7.0.u.u.g.h.h.q q 2 = * * : 2 2 -       V U L l l l oXoXoXN N N C l V U oX",
"& & 9 9 9 9 t t i +.+.+.7.7.w.w.7.7.<.1.2.<.6.f.g.u.h.h.h.h.h.>.q q 3 * * * 2 2 2       V U U x l l l oXoXoXoXoXoXoXoXN l oXoXoX",
"k & $ 6 9 9 0 t t t | +.t %.u.u.7.7.2.<.<.4.u.p.h.h.h.h.h.>.q q 3 * * * 2 2 2 o     s V V S l l l oXoXoXoXoXoXoXoXoXoXoXoXoXoXoX",
"c.c.f & % 5 9 9 0 t t t t t t u.u.w.u.u.7.7.7.u.u.w.u.u.q q q ; * * : 2 2 -       V V V l l l oXoXoXoXoXoXoXoXoXoXoXoXoXoXoXoXoX",
"m.b.Q Q j.% % % 9 9 9 r t t t t t X.<.<.7.7.6.7.7.} q q 3 * * * 2 2 2       D U V x l l l oXoXoXoXoXoXoXoXoXoXoXoXoXoXoXoXoXoXoX",
"m.m.Q Q c.c.j % & 5 9 9 0 t t t r 9 9 ..<.<.<.p 2 4 7 2 * * 2 2 2 o     d D D S l l l oXoXoXoXoXoXoXoXoXoXoXoXoXoXoXoXoXoXoXoXoX",
"c.v.Q J J c.c.c.k & % 6 9 9 0 t 9 9 9 9 9 <.* 2 2 > 2 2 : 2 2 -       W U D l l l oXoXoXoXoXoXoXoXoXoXoXoXoXoXoXoXoXoXoXoXoXoXoX",
"m.c.Q N G J N T z.z.j.& & & 9 9 9 9 9 9 9 < * * * : * * 2       V U U b l l l oXoXoXoXoXoXoXoXoXoXoXoXoXoXoXoXoXoXoXoXoXoXoXoXoX",
"m.m.Q N V V N N N z.c.Q h & & 5 9 9 9 9 9 < * * * * * X     d V V S l l l oXoXoXoXoXoXoXoXoXoXoXoXoXoXoXoXoXoXoXoXoXoXoXoXoXoXoX",
"c.n.Q N M v V n N N N Q Q Q k % , 9 9 9 9 < * * * @       U U V l l l oXoXoXoXoXoXoXoXoXoXoXoXoXoXoXoXoXoXoXoXoXoXoXoXoXoXoXoXoX",
"c.c.Q N v l l l oXoXN N N I c.c.k.% % & 9 < *       W W U c l l l oXoXoXoXoXoXoXoXoXoXoXoXoXoXoXoXoXoXoXoXoXoXoXoXoXoXoXoXoXoXoX",
"oXoXQ N l l oXoXoXoXoXoXN N N c.c.Q g & & #     m W W L l l l oXoXoXoXoXoXoXoXoXoXoXoXoXoXoXoXoXoXoXoXoXoXoXoXoXoXoXoXoXoXoXoXoX",
"oXoXoXoXl oXoXoXoXoXoXoXoXoXN N J Q Q Q & +   U W W l l l oXoXoXoXoXoXoXoXoXoXoXoXoXoXoXoXoXoXoXoXoXoXoXoXoXoXoXoXoXoXoXoXoXoXoX",
"oXoXoXoXoXoXoXoXoXoXoXoXoXoXoXoXJ J J Q c.R V A v z l oXoXoXoXoXoXoXoXoXoXoXoXoXoXoXoXoXoXoXoXoXoXoXoXoXoXoXoXoXoXoXoXoXoXoXoXoX",
"oXoXoXoXoXoXoXoXoXoXoXoXoXoXoXoXoXC J Q m.! H V v l oXoXoXoXoXoXoXoXoXoXoXoXoXoXoXoXoXoXoXoXoXoXoXoXoXoXoXoXoXoXoXoXoXoXoXoXoXoX",
"oXoXoXoXoXoXoXoXoXoXoXoXoXoXoXoXoXN N Q n.^ K V l l oXoXoXoXoXoXoXoXoXoXoXoXoXoXoXoXoXoXoXoXoXoXoXoXoXoXoXoXoXoXoXoXoXoXoXoXoXoX",
"oXoXoXoXoXoXoXoXoXoXoXoXoXoXoXoXoXJ J Q c.l.U V l l oXoXoXoXoXoXoXoXoXoXoXoXoXoXoXoXoXoXoXoXoXoXoXoXoXoXoXoXoXoXoXoXoXoXoXoXoXoX",
"oXoXoXoXoXoXoXoXoXoXoXoXoXoXoXoXoXF J Q b.l.E V l l oXoXoXoXoXoXoXoXoXoXoXoXoXoXoXoXoXoXoXoXoXoXoXoXoXoXoXoXoXoXoXoXoXoXoXoXoXoX",
"oXoXoXoXoXoXoXoXoXoXoXoXoXoXoXoXoXN N Q m.x.W V l l oXoXoXoXoXoXoXoXoXoXoXoXoXoXoXoXoXoXoXoXoXoXoXoXoXoXoXoXoXoXoXoXoXoXoXoXoXoX",
"oXoXoXoXoXoXoXoXoXoXoXoXoXoXoXoXoXoXN Q c.l.U V l oXoXoXoXoXoXoXoXoXoXoXoXoXoXoXoXoXoXoXoXoXoXoXoXoXoXoXoXoXoXoXoXoXoXoXoXoXoXoX",
"oXoXoXoXoXoXoXoXoXoXoXoXoXoXoXoXoXoXoXoXc.l.U oXoXoXoXoXoXoXoXoXoXoXoXoXoXoXoXoXoXoXoXoXoXoXoXoXoXoXoXoXoXoXoXoXoXoXoXoXoXoXoXoX",
"oXoXoXoXoXoXoXoXoXoXoXoXoXoXoXoXoXoXoXoXoXoXoXoXoXoXoXoXoXoXoXoXoXoXoXoXoXoXoXoXoXoXoXoXoXoXoXoXoXoXoXoXoXoXoXoXoXoXoXoXoXoXoXoX",
"oXoXoXoXoXoXoXoXoXoXoXoXoXoXoXoXoXoXoXoXoXoXoXoXoXoXoXoXoXoXoXoXoXoXoXoXoXoXoXoXoXoXoXoXoXoXoXoXoXoXoXoXoXoXoXoXoXoXoXoXoXoXoXoX",
"oXoXoXoXoXoXoXoXoXoXoXoXoXoXoXoXoXoXoXoXoXoXoXoXoXoXoXoXoXoXoXoXoXoXoXoXoXoXoXoXoXoXoXoXoXoXoXoXoXoXoXoXoXoXoXoXoXoXoXoXoXoXoXoX",
"oXoXoXoXoXoXoXoXoXoXoXoXoXoXoXoXoXoXoXoXoXoXoXoXoXoXoXoXoXoXoXoXoXoXoXoXoXoXoXoXoXoXoXoXoXoXoXoXoXoXoXoXoXoXoXoXoXoXoXoXoXoXoXoX",
"oXoXoXoXoXoXoXoXoXoXoXoXoXoXoXoXoXoXoXoXoXoXoXoXoXoXoXoXoXoXoXoXoXoXoXoXoXoXoXoXoXoXoXoXoXoXoXoXoXoXoXoXoXoXoXoXoXoXoXoXoXoXoXoX",
"oXoXoXoXoXoXoXoXoXoXoXoXoXoXoXoXoXoXoXoXoXoXoXoXoXoXoXoXoXoXoXoXoXoXoXoXoXoXoXoXoXoXoXoXoXoXoXoXoXoXoXoXoXoXoXoXoXoXoXoXoXoXoXoX",
"oXoXoXoXoXoXoXoXoXoXoXoXoXoXoXoXoXoXoXoXoXoXoXoXoXoXoXoXoXoXoXoXoXoXoXoXoXoXoXoXoXoXoXoXoXoXoXoXoXoXoXoXoXoXoXoXoXoXoXoXoXoXoXoX",
"oXoXoXoXoXoXoXoXoXoXoXoXoXoXoXoXoXoXoXoXoXoXoXoXoXoXoXoXoXoXoXoXoXoXoXoXoXoXoXoXoXoXoXoXoXoXoXoXoXoXoXoXoXoXoXoXoXoXoXoXoXoXoXoX",
"oXoXoXoXoXoXoXoXoXoXoXoXoXoXoXoXoXoXoXoXoXoXoXoXoXoXoXoXoXoXoXoXoXoXoXoXoXoXoXoXoXoXoXoXoXoXoXoXoXoXoXoXoXoXoXoXoXoXoXoXoXoXoXoX"
};
