/* XPM */
static char *result[] = {
/* columns rows colors chars-per-pixel */
"64 64 142 2 ",
"   c none",
".  c #21393B",
"X  c #263E40",
"o  c #243C3E",
"O  c #1B3335",
"+  c #1A3234",
"@  c #20383A",
"#  c #253D3F",
"$  c #223A3C",
"%  c #1C3436",
"&  c #1D3537",
"*  c #233B3D",
"=  c #1E3638",
"-  c #1F3739",
";  c #273F41",
":  c #284244",
">  c #2C474A",
",  c #365759",
"<  c #233D3F",
"1  c #2D484B",
"2  c #294244",
"3  c #2D494B",
"4  c #2B4749",
"5  c #274042",
"6  c #284143",
"7  c #345356",
"8  c #304D50",
"9  c #2B474A",
"0  c #315052",
"q  c #355659",
"w  c #385A5D",
"e  c #37585B",
"r  c #2E4B4D",
"t  c #284346",
"y  c #253F42",
"u  c #2B4649",
"i  c #37595C",
"p  c #325153",
"a  c #314F52",
"s  c #2F4E50",
"d  c #2B484B",
"f  c #365659",
"g  c #1C3437",
"h  c #284144",
"j  c #274244",
"k  c #223C3F",
"l  c #2A4547",
"z  c #36575A",
"x  c #203B3D",
"c  c #2C4B4D",
"v  c #284647",
"b  c #3F6768",
"n  c #395C5E",
"m  c #3D6365",
"M  c #406969",
"N  c #3B6061",
"B  c #1D3638",
"V  c #243D3F",
"C  c #2D4F4F",
"Z  c #4C7E79",
"A  c #477573",
"S  c #4E827D",
"D  c #4E817C",
"F  c #3F6767",
"G  c #1A3335",
"H  c #1F383A",
"J  c #294446",
"K  c #2B4748",
"L  c #2A4546",
"P  c #263F42",
"I  c #325255",
"U  c #4E817D",
"Y  c #4C7E7A",
"T  c #4D807C",
"R  c #3D6364",
"E  c #233E41",
"W  c #37595B",
"Q  c #467572",
"!  c #497A75",
"~  c #426C6B",
"^  c #1B3436",
"/  c #2A474A",
"(  c #2E4C4F",
")  c #4C7F7B",
"_  c #497975",
"`  c #253F41",
"'  c #2E4A4C",
"]  c #345655",
"[  c #355757",
"{  c #325252",
"}  c #345558",
"|  c #3B6062",
" . c #345456",
".. c #436F6D",
"X. c #4B7C79",
"o. c #3E6666",
"O. c #335355",
"+. c #3D6464",
"@. c #477572",
"#. c #385B5D",
"$. c #4B7D79",
"%. c #2B4647",
"&. c #1C3538",
"*. c #315053",
"=. c #2A4648",
"-. c #294345",
";. c #3B5F61",
":. c #193234",
">. c #294649",
",. c #254043",
"<. c #243F41",
"1. c #254042",
"2. c #395D5E",
"3. c #2E4D4F",
"4. c #355558",
"5. c #457270",
"6. c #395C5F",
"7. c #213A3D",
"8. c #406A67",
"9. c #2C4A4D",
"0. c #2F4E4E",
"q. c #395E5E",
"w. c #3E6765",
"e. c #36595A",
"r. c #20393B",
"t. c #2F4C4F",
"y. c #284446",
"u. c #2A4548",
"i. c #274446",
"p. c #314F51",
"a. c #2D494C",
"s. c #38595C",
"d. c #355658",
"f. c #416A6A",
"g. c #426C6C",
"h. c #4C7F7A",
"j. c #3A5E60",
"k. c #416A69",
"l. c #497875",
"z. c #3E6565",
"x. c #2B4547",
"c. c #2F4D4F",
/* pixels */
"                                                          . X o O     O o X X o O                                               ",
"                                                      + @ o X # $ %   + & * X # $ . =                                           ",
"                                                  % = - # X X X X =       . X X X X * & +         % = = = = = & +               ",
"                                          + O O O $ X X X X X X X - O +   . ; : : ; X o O + O O O $ X X X X X # % +             ",
"                                          @ o o o # X X X X X X X # o * + . > , , > X o O @ o o o # X X X X X X # &             ",
"                                  = = + @ o X X X X X X X X X X X X X # $ - < 1 1 2 X o O . X X X 3 3 X X X X X X * =           ",
"                              + & @ @ - # X X X X X X X X X X X X X o . . % % . . . . @ + = . . . 4 3 ; > 2 X X X X .           ",
"                        + +   + * = - X X 5 : : : : 5 X X X X X # o @                             @ # 6 7 > X X X # @           ",
"                      + * &     + . # X X 8 , , , , 8 X X X X # % O +                             + - X 6 ; X X X - +           ",
"                    % $ # =   + @ 9 0 0 0 q w e r t y # - = = & +           % . . . . . . . =       O = = = = - # =             ",
"                  % . X X = O @ u 7 w i p a s d * - - @ +           O = = = . X X X X # $ . = + & = = & +     + @ %             ",
"                  . X X X = = 6 7 f f 7 5 o . +   @ @           + + = X X X X X X # o * +   + g 5 : : 5 % +                     ",
"                  . X X X = = X 6 h h 5 % O = * + + +         + * & = X X X X X X - O +     & 5 7 , , 7 5 &                     ",
"              + @ o X X X = = X X X X o O = @ & +     + @ . . $ # * j 8 5 X X # - O         k p i w 7 > ; =                     ",
"              O o X X # $ % % . . . . @ + = @ = = = = - # X X ; > 3 a f h X X o O         % y p i 7 3 X X =                     ",
"              O o X # * % +               + - X 6 : : : : : : l z w i 7 6 X X o O + O O O $ X 6 7 > # o o &                     ",
"              O o X $ % * &               @ # 6 7 , , , , , , z w w p 6 X X X o O @ o o o # X X 6 ; $ O O +                     ",
"              + & * . + & O % . . % x c c s 0 p i w w w w w w e r 1 l X X . = & + . X X X X X X X . - @ +                       ",
"                  = =     % . # $ % v b n m M M M N w w w 7 a 8 5 X X # $ %   + & * X ; > 3 3 > ; . - @ +                       ",
"                    + O B V : 5 % + C Z m A S D Z F i f f > X X X X # * +   G H J K L l z e f 7 6 # . +                         ",
"                    & P I q , 7 5 & C U Y T S Z R n p h h ; X X X X $ +     E W Q ! ~ z w r h 6 X - = * +                       ",
"              ^ / c ( p i w w f h = v ~ ) S _ F n a l X X X X X X X .     = ` ' ] [ { r e 1 X X X * * o O                       ",
"              B } w | b n w q 8 5 = k  ...X._ o.O.l X X X X X # $ . =     = . . . . . V q 1 X X X * . @ +                       ",
"              B I f +.@.#.f 8 X X = = 6 7 ..$.@.%.X X X X X # * +         + O O O O + &.*.=.o o o = +                           ",
"              O P h -.%.2 h 5 X X = = X 6  .;.#.2 X X X X X $ +           @ o o o o @ :.&.^ O O O . @                           ",
"              O o X X X X X X X X = = X X 0 w f h X X X X . %       % . . o X X X X o . . . . . . o .                           ",
"            O @ u 3 3 > ; * . . . % = X X 0 q 8 5 X X X X =   + & = . X X X X X X X X X X X 2 > ; * =                           ",
"        + O - : , w i 7 6 =         = X X 8 8 X X X X X # &   O o X X X X X X X X X X X X 5 r f h =                             ",
"      + * o # : , w p 6 X =         = X X 5 5 X X X X # % +   O o X X X X X X X X X X X X 8 e f h =                             ",
"  = . $ # 3 0 p i w a X X * =       O = = * X X X X * & +   % $ # X X X X X X X X X l 0 0 >.,.<.- O                             ",
"  1.3 3 3 2.M b n w 7 > ; X .         + & @ * X X X .       = X X X X X X X X X X X 3 e 3.x   + & = = & +                       ",
"  / 4.f f 5.S Z m 6.w f h X .         + * = = o o # .       = X 6 : : : : : : 6 X 5 3 *.&.+ O % # X X # % +                     ",
"  ^ 7.h h 8.S U Y F w f h X .           + . . O O $ .       = 6 7 , , , , , , 7 6 8 9.&.:.@ o # X X X X # &                     ",
"    O - # 0.q.~ ) M 7 > ; X .             % %     % %       O 7.4.w w w w a 1 > ; 0 c + @ o X X X 3 3 X X * =                   ",
"      + @ o 3 n w.e.3 X X X .                               O r.t.q w w w 1 X X X 3 y.+ @ o X ; > 7 7 3 3 2 .                   ",
"          . 3 f h X X X X # @                             + - X X 0 w w w 1 X X X X .   + $ X 6 7 i w w z > .                   ",
"          . 3 f h X X X X - +                             @ # X X 0 w w w 1 X X X X . + * # X X 6 p w z l ; .                   ",
"          % < > ; . = = = O                               . X X X l u.i.z 7 3 X X X . O o . . X X l 1 > ; X .                   ",
"            % . . %               % = & + % = = = O   + & j l X X X . ^ / c =.X X * = O o = % $ # X X X X * @ & +               ",
"                            + O O $ X # % $ X X X =   O o 8 p.: : ; $ O O + = X X - + + * &   + * # # # X = & * +               ",
"                            & o o # X X # # X X X =   O o 5 a., , > # o o & = X X # @   + +     + $ $ % # = + +                 ",
"                          = * X X X X X X 3 0 0 0 k   + & * 2 1 1 2 X X X = O - # X .             % - . = @ =                   ",
"                    O = = * 2 > ; X X ; > 7 w w w ,.      = * X X X o $ # =   + @ . =               % @ + = =                   ",
"                  + - X X 5 r f h 5 : l z w w s.d.E         & # X # . % * &                                                     ",
"                  @ # X X 8 e f h 8 , z w w w d.x G         + % # - = * % +                                                     ",
"              + @ o l 0 0 q w i p q w w w w 7 =.^             + & O O = . %                                                     ",
"              O o l a w w w w w w w w w w w a o O                     O o =                                                     ",
"              O P p w w w w w w w w w w z f 8 # % +                   + * &                                                     ",
"              B I i w w w w w w w w w z l h 5 X # &                     + +                                                     ",
"            x 3.e w w w w w w w w w w n w.0.X X X =         % . . . . . . %                                                     ",
"            ,.6.b N w w w w | M M M M f.5.{ X X X =       % . X X X X X X . %                                                   ",
"            ,.;.$.~ ;.;.;.;.g.S S h.$._ j.1 X X X =     + $ X X X X X X X X .                                                   ",
"            ,.;.$.) $.$.$.$.) S S ~ ;.j.#.1 X X X =   + * # X X X X X X X X .                                                   ",
"            ,.;.$.S _ M M q.[ [ [ W w e r 2 X # - O % $ # X X X X 3 0 0 0 l .                                                   ",
"            ,.;.$._ k.i p l X X X 3 a 8 5 * . @ +   = ; > 3 3 3 3 7 q a a j =                                                   ",
"            <.#.l.z.f 7 6 X X X X X X X # &         = 6 7 i w w w w a X X =                                                     ",
"            - x.#.c.h 6 X X X X X X X # % +         = X 6 p w w w w a X X =                                                     ",
"            = ; > 2 X X X X X X X X * & +           O - # l 1 1 1 1 l # - O                                                     ",
"            = X X X X X X X X X X X .                 + @ . * X X X X o O                                                       ",
"            = X X X X X X X X X X # @                       & # X X X o O                                                       ",
"            = X X X X X X X X X X - +                       + % # X X o O                                                       ",
"            O = = = = - # X X X X =                           + & = = & +                                                       ",
"                      + @ . . . . %                                                                                             ",
"                                                                                                                                "
};
