/* XPM */
static char *result[] = {
/* columns rows colors chars-per-pixel */
"64 64 6 1 ",
"  c #3A5214",
". c #7E851B",
"X c white",
"o c #BDBA25",
"O c #E6D133",
"+ c #112024",
/* pixels */
"        .......   .......XXXXXXX.......ooooooooooOOOOOOOXXXXXXXX",
"        .......   .......XXXXXXX.......ooooooooooOOOOOOOXXXXXXXX",
"        .......   .......XXXXXXX.......ooooooooooOOOOOOOXXXXXXXX",
"     ...    ......oooo.......ooooooooooooooooooooOOOoooooooooooo",
"     ...    ......oooo.......ooooooooooooooooooooOOOoooooooooooo",
"     ...    ......oooo.......ooooooooooooooooooooOOOoooooooooooo",
"............oooooooooooooooooooooooooooooooooooooooooooooooooooo",
"............oooooooooooooooooooooooooooooooooooooooooooooooooooo",
"............oooooooooooooooooooooooooooooooooooooooooooooooooooo",
"............oooooooooooooooooooooooooooooooooooooooooooooooooooo",
"OOOOOOOOOOOOOOOOOOOOOOOOOOOOOOOOoooOOOOOOOOOOOOOOOOOOOOOOOOOOOOO",
"OOOOOOOOOOOOOOOOOOOOOOOOOOOOOOOOoooOOOOOOOOOOOOOOOOOOOOOOOOOOOOO",
"OOOOOOOOOOOOOOOOOOOOOOOOOOOOOOOOoooOOOOOOOOOOOOOOOOOOOOOOOOOOOOO",
".....OOOOOOOOOOOOOOOOOOOOOOOOOOOoooOOOOOOOOOOOOOOOOOOOOOOOOOOOOO",
".....OOOOOOOOOOOOOOOOOOOOOOOOOOOoooOOOOOOOOOOOOOOOOOOOOOOOOOOOOO",
".....OOOOOOOOOOOOOOOOOOOOOOOOOOOoooOOOOOOOOOOOOOOOOOOOOOOOOOOOOO",
".....ooooooooooooo....ooooooooooooooooooooooooooo..........ooooO",
".....ooooooooooooo....ooooooooooooooooooooooooooo..........ooooO",
".....ooooooooooooo....ooooooooooooooooooooooooooo..........ooooO",
".....ooooooooooooo....ooooooooooooooooooooooooooo..........ooooO",
"o.....................ooo..........ooooooooooo...oooooooooo....o",
"o.....................ooo..........ooooooooooo...oooooooooo....o",
"o.....................ooo..........ooooooooooo...oooooooooo....o",
"...................................ooooooo.......oooooooOOO.....",
"...................................ooooooo.......oooooooOOO.....",
"...................................ooooooo.......oooooooOOO.....",
"...................................ooooooo.......oooooooOOO.....",
"..................ooooooooooo      ..............oooOOOO....... ",
"..................ooooooooooo      ..............oooOOOO....... ",
"..................ooooooooooo      ..............oooOOOO....... ",
"..................oooooooooooooo                 ooo........... ",
"..................oooooooooooooo                 ooo........... ",
"..................oooooooooooooo                 ooo........... ",
".    .......   ...oooooooooooooo                 ooo.......     ",
".    .......   ...oooooooooooooo                 ooo.......     ",
".    .......   ...oooooooooooooo                 ooo.......     ",
".    .......   ...oooooooooooooo                 ooo.......     ",
".    ...          .......    ooo.......       +++..........     ",
".    ...          .......    ooo.......       +++..........     ",
".    ...          .......    ooo.......       +++..........     ",
".           ...   +++++++++++......       +++++++   oooo...     ",
".           ...   +++++++++++......       +++++++   oooo...     ",
".           ...   +++++++++++......       +++++++   oooo...     ",
".           ...   +++++++++++......       +++++++   oooo...     ",
"        .......+++++++   ++++   ...    +++       +++++++ooo++++ ",
"        .......+++++++   ++++   ...    +++       +++++++ooo++++ ",
"        .......+++++++   ++++   ...    +++       +++++++ooo++++ ",
" ++++   ....   +++       +++++++++++++++++          +++++++++++ ",
" ++++   ....   +++       +++++++++++++++++          +++++++++++ ",
" ++++   ....   +++       +++++++++++++++++          +++++++++++ ",
"++++++++       +++    ++++++++++++++++++++++++      +++++++++++ ",
"++++++++       +++    ++++++++++++++++++++++++      +++++++++++ ",
"++++++++       +++    ++++++++++++++++++++++++      +++++++++++ ",
"++++++++       +++    ++++++++++++++++++++++++      +++++++++++ ",
"++++++++++++   +++++++++++++++++          +++++++   +++++++++++ ",
"++++++++++++   +++++++++++++++++          +++++++   +++++++++++ ",
"++++++++++++   +++++++++++++++++          +++++++   +++++++++++ ",
"+       ++++++++++++++++++++++++          ++++++++++.......+++++",
"+       ++++++++++++++++++++++++          ++++++++++.......+++++",
"+       ++++++++++++++++++++++++          ++++++++++.......+++++",
"+       ++++++++++++++++++++++++          ++++++++++.......+++++",
"     +++++++++++++++++++++++++++       ++++++++++..........+++++",
"     +++++++++++++++++++++++++++       ++++++++++..........+++++",
"     +++++++++++++++++++++++++++       ++++++++++..........+++++"
};
